<svg width="15" height="14" viewBox="0 0 15 14" fill="none" xmlns="http://www.w3.org/2000/svg">
<path d="M13.5484 8.80648H7.74194C7.74194 8.22388 7.93793 7.68417 8.27425 7.24391L9.43549 7.67744L10.6428 7.22583L11.8548 7.67744L13.0161 7.24391C13.3524 7.68417 13.5484 8.22388 13.5484 8.80648Z" fill="#DFB28B"/>
<path d="M11.1362 6.13529C11.7435 6.23243 12.283 6.50113 12.6992 6.88945C12.8153 6.99794 12.9241 7.11757 13.016 7.24404L11.8548 7.67757L10.6427 7.22596L9.43541 7.67757L8.27417 7.24404C8.46767 6.98659 8.70961 6.76078 8.98781 6.58239C9.28538 6.38591 9.62655 6.24368 9.9943 6.16694C10.2023 6.11953 10.42 6.09692 10.6451 6.09692L11.1362 6.13529Z" fill="#FCD770"/>
<path d="M5.32248 7.37942C5.54268 7.28008 5.78698 7.22583 6.04828 7.22583C6.21036 7.22583 6.3676 7.24612 6.51526 7.2868C7.22406 7.47424 7.74183 8.08385 7.74183 8.80648H4.35474C4.35474 8.17426 4.74906 7.63224 5.32248 7.37942V7.37942Z" fill="#FCD770"/>
<path d="M14.4242 1.80648C14.6274 1.97131 14.7581 2.21288 14.7581 2.48389C14.7581 2.98292 14.325 3.38712 13.7903 3.38712C13.2556 3.38712 12.8226 2.98292 12.8226 2.48389L11.4919 3.72583L11.0081 3.27422L12.3387 2.03228C11.804 2.03228 11.371 1.62808 11.371 1.12906C11.371 0.630032 11.804 0.22583 12.3387 0.22583C12.6291 0.22583 12.8879 0.347774 13.0645 0.537417C13.2411 0.347774 13.4999 0.22583 13.7903 0.22583C14.325 0.22583 14.7581 0.630032 14.7581 1.12906C14.7581 1.40007 14.6274 1.64164 14.4242 1.80648Z" fill="#B4DD7F"/>
<path d="M8.27426 7.24393C7.93793 7.68418 7.74195 8.22389 7.74195 8.80649C7.74195 8.08387 7.22418 7.47426 6.51538 7.28682L6.53227 7.22585V7.11515C6.53227 6.76067 6.74999 6.431 7.10085 6.2955C7.26529 6.23 7.42264 6.13518 7.55814 6.00872C7.96215 5.63164 8.07343 5.08973 7.90167 4.61551C8.1944 4.3671 8.46776 4.01031 8.46776 3.61294L8.79676 3.20422C9.04602 2.89263 9.43786 2.70972 9.85404 2.70972C10.2073 2.70972 10.5436 2.8407 10.7904 3.07103L11.7 3.92001C11.9541 4.15717 12.0968 4.4778 12.0968 4.81199C12.0968 5.19579 11.9105 5.55942 11.5887 5.79879L11.1363 6.13518L10.6452 6.09681C10.4201 6.09681 10.2024 6.11942 9.99438 6.16683C9.62664 6.24357 9.28547 6.3858 8.9879 6.58228C8.70969 6.76067 8.46776 6.98648 8.27426 7.24393V7.24393Z" fill="#FF826E"/>
<path d="M6.53227 7.11513V7.22583L6.51537 7.2868C6.36771 7.24612 6.21047 7.22583 6.0484 7.22583C5.78709 7.22583 5.54279 7.28008 5.32259 7.37942C4.74917 7.63224 4.35485 8.17426 4.35485 8.80648H2.17743V7.11513C2.17743 6.76066 1.95971 6.43099 1.60886 6.29548C1.44441 6.22999 1.28706 6.13517 1.15156 6.0087C0.747551 5.63162 0.63627 5.08971 0.808035 4.61549C0.515302 4.36709 0.241943 4.01029 0.241943 3.61293C0.241943 2.99648 0.771768 2.47485 1.37661 2.31233C1.3355 1.92158 1.46851 1.51749 1.78794 1.21715C2.15321 0.878442 2.6613 0.758702 3.13064 0.855839C3.3871 0.47876 3.83955 0.22583 4.35485 0.22583C4.87014 0.22583 5.32259 0.47876 5.57905 0.855839C6.0484 0.758702 6.55648 0.878442 6.92175 1.21715C7.24118 1.51749 7.3742 1.92158 7.33309 2.31233C7.93793 2.47485 8.46775 2.99648 8.46775 3.61293C8.46775 4.01029 8.19439 4.36709 7.90166 4.61549C8.07342 5.08971 7.96214 5.63162 7.55813 6.0087C7.42263 6.13517 7.26528 6.22999 7.10084 6.29548C6.74998 6.43099 6.53227 6.76066 6.53227 7.11513Z" fill="#B4DD7F"/>
<path d="M3.62891 12.4194H4.59665V13.7743H3.62891V12.4194Z" fill="#CF9E76"/>
<path d="M12.3386 13.5485V12.4194H13.3064L13.2628 12.5391C13.1032 12.9862 12.7692 13.3453 12.3435 13.5575L12.3386 13.5485Z" fill="#CF9E76"/>
<path d="M4.59668 12.4194H5.56442V13.7743H4.59668V12.4194Z" fill="#CF9E76"/>
<path d="M10.4033 12.4194V13.7743H9.43555V12.4194H10.4033Z" fill="#CF9E76"/>
<path d="M12.3386 13.5485L12.3434 13.5575C12.0701 13.6975 11.7555 13.7743 11.4265 13.7743H11.3708V12.4194H12.3386V13.5485Z" fill="#CF9E76"/>
<path d="M8.46753 12.4194H9.43527V13.7743H8.46753V12.4194Z" fill="#CF9E76"/>
<path d="M10.4033 12.4194H11.3711V13.7743H10.4033V12.4194Z" fill="#CF9E76"/>
<path d="M5.56421 12.4194H6.53195V13.7743H5.56421V12.4194Z" fill="#CF9E76"/>
<path d="M3.62884 12.4194V13.7743H3.57319C3.2442 13.7743 2.92961 13.6975 2.65625 13.5575L2.66109 13.5485V12.4194H3.62884Z" fill="#CF9E76"/>
<path d="M2.6611 12.4194V13.5485L2.65626 13.5575C2.23051 13.3453 1.89655 12.9862 1.73695 12.5391L1.69336 12.4194H2.6611Z" fill="#CF9E76"/>
<path d="M7.5 12.4194H8.46774V13.7743H7.5V12.4194Z" fill="#CF9E76"/>
<path d="M6.53223 12.4194H7.49997V13.7743H6.53223V12.4194Z" fill="#CF9E76"/>
<path d="M10.1613 9.70972H0.72583L1.69357 12.4194H13.3065L14.2742 9.70972H10.1613Z" fill="#ECC19C"/>
<path d="M14.2742 8.80664C14.5404 8.80664 14.7581 9.00984 14.7581 9.25825C14.7581 9.3824 14.7048 9.49531 14.6154 9.57668C14.5282 9.66014 14.4072 9.70987 14.2742 9.70987H0.725814C0.459662 9.70987 0.241943 9.50666 0.241943 9.25825C0.241943 9.1341 0.295221 9.0212 0.384647 8.93983C0.471829 8.85637 0.592797 8.80664 0.725814 8.80664H14.2742Z" fill="#B27946"/>
<path d="M13.7903 3.6129C14.4573 3.6129 15 3.10638 15 2.48387C15 2.23844 14.9122 2.00106 14.7535 1.80645C14.9122 1.61185 15 1.37446 15 1.12903C15 0.506521 14.4573 0 13.7903 0C13.5274 0 13.273 0.081921 13.0645 0.230106C12.856 0.081921 12.6017 0 12.3387 0C11.6717 0 11.129 0.506521 11.129 1.12903C11.129 1.59145 11.4291 1.98871 11.8563 2.16324L11.0081 2.95489L10.9619 2.91178C10.6662 2.63581 10.2733 2.48387 9.85497 2.48387C9.36531 2.48387 8.89715 2.70218 8.603 3.06823L8.59355 3.08025C8.40454 2.64871 8.00608 2.31882 7.58151 2.15508C7.57738 1.74184 7.40443 1.34966 7.09209 1.05836C6.72115 0.71215 6.20763 0.549631 5.68985 0.609722C5.36948 0.225365 4.88183 0 4.35484 0C3.82785 0 3.3402 0.225365 3.01982 0.609501C2.50311 0.550293 1.98876 0.71215 1.61783 1.05836C1.30548 1.34966 1.1323 1.74184 1.1284 2.15508C0.541638 2.38111 0 2.92082 0 3.6129C0 4.07918 0.298285 4.45714 0.535377 4.68394C0.396807 5.2188 0.560303 5.77615 0.979791 6.16723C1.13466 6.312 1.31541 6.4249 1.51741 6.50296C1.76762 6.6001 1.93548 6.84619 1.93548 7.1161V8.58065H0.725806C0.325691 8.58065 0 8.88462 0 9.25806C0 9.57219 0.23154 9.83482 0.542701 9.9109L1.50678 12.6104C1.80365 13.4415 2.63377 14 3.57245 14H11.4278C12.3666 14 13.1966 13.4415 13.4932 12.6107L14.4573 9.91112C14.7685 9.83482 15 9.57219 15 9.25806C15 8.88462 14.6743 8.58065 14.2742 8.58065H13.778C13.6805 7.39428 12.8255 6.40472 11.6635 6.03194L11.7406 5.97439C12.1208 5.69059 12.3387 5.2672 12.3387 4.81283C12.3387 4.42131 12.1686 4.03783 11.8717 3.76098L11.834 3.72581L12.6822 2.93416C12.8692 3.33285 13.2949 3.6129 13.7903 3.6129ZM1.70276 6.08597C1.5597 6.03062 1.43177 5.95068 1.32214 5.84814C0.996803 5.54472 0.887648 5.10027 1.0372 4.68802L1.088 4.54777L0.970695 4.44843C0.788653 4.29484 0.483871 3.98182 0.483871 3.6129C0.483871 3.07772 0.979083 2.65521 1.44512 2.5293L1.63885 2.47692L1.6183 2.28971C1.58132 1.94714 1.70583 1.61449 1.95994 1.37766C2.2522 1.10511 2.66956 0.992644 3.07747 1.07666L3.24309 1.11073L3.33382 0.977098C3.55768 0.648091 3.93948 0.451613 4.35484 0.451613C4.77019 0.451613 5.152 0.648091 5.37609 0.977098L5.46682 1.11073L5.63244 1.07666C6.04035 0.992424 6.45795 1.10511 6.74998 1.37766C7.00408 1.61471 7.12835 1.94714 7.09138 2.28971L7.07106 2.47692L7.2648 2.5293C7.73059 2.65521 8.22581 3.07772 8.22581 3.6129C8.22581 3.98182 7.92102 4.29484 7.73898 4.44843L7.62168 4.54777L7.67247 4.68802C7.82203 5.10005 7.71287 5.54472 7.3873 5.84837C7.27791 5.95068 7.14997 6.03062 7.00715 6.08597C6.60385 6.24198 6.33557 6.6012 6.29812 7.01676C6.21602 7.00673 6.13309 7 6.04839 7C5.88099 7 5.71962 7.02194 5.56452 7.05943V5.89875L5.77763 5.10303L7.39864 4.02229L7.11749 3.65491L5.95837 4.42759L6.28288 3.21598L5.81366 3.1066L5.08785 5.81628L5.08159 7.24389C4.89896 7.34279 4.73546 7.46859 4.59677 7.61557V2.93548H4.1129V8.58065H3.62903V5.87097L2.89602 3.1066L2.4268 3.21598L2.75131 4.42759L1.59219 3.65491L1.31104 4.02229L2.93205 5.10303L3.14516 5.89875V8.58065H2.41935V7.1161C2.41935 6.65853 2.13796 6.25444 1.70276 6.08597ZM6.04839 7.45161C6.76616 7.45161 7.36238 7.94093 7.47826 8.58065H4.61851C4.7344 7.94093 5.33061 7.45161 6.04839 7.45161ZM2.04629 12.6452H2.41935V13.1222C2.26578 12.9886 2.13914 12.8276 2.04629 12.6452ZM11.6129 12.6452H12.0968V13.4152C11.9444 13.4764 11.7825 13.5172 11.6129 13.5346V12.6452ZM11.129 13.5484H10.6452V12.6452H11.129V13.5484ZM10.1613 13.5484H9.67742V12.6452H10.1613V13.5484ZM9.19355 13.5484H8.70968V12.6452H9.19355V13.5484ZM8.22581 13.5484H7.74194V12.6452H8.22581V13.5484ZM7.25806 13.5484H6.77419V12.6452H7.25806V13.5484ZM6.29032 13.5484H5.80645V12.6452H6.29032V13.5484ZM5.32258 13.5484H4.83871V12.6452H5.32258V13.5484ZM4.35484 13.5484H3.87097V12.6452H4.35484V13.5484ZM3.3871 13.5346C3.21746 13.5172 3.05562 13.4766 2.90323 13.4152V12.6452H3.3871V13.5346ZM12.5806 13.1222V12.6452H12.9537C12.8609 12.8276 12.7342 12.9886 12.5806 13.1222ZM13.1322 12.1935H1.86779L1.06142 9.93548H13.9386L13.1322 12.1935ZM14.5161 9.25806C14.5161 9.38266 14.4077 9.48387 14.2742 9.48387H0.725806C0.592317 9.48387 0.483871 9.38266 0.483871 9.25806C0.483871 9.13347 0.592317 9.03226 0.725806 9.03226H14.2742C14.4077 9.03226 14.5161 9.13347 14.5161 9.25806ZM7.99616 8.58065C8.03349 8.19585 8.1665 7.83751 8.37099 7.52339L9.43454 7.92087L10.644 7.46925L11.8544 7.92087L12.9196 7.52339C13.1241 7.83773 13.2571 8.19607 13.2944 8.58087L7.99616 8.58065ZM12.6208 7.14808L11.8541 7.43419L10.6437 6.98258L9.4343 7.43419L8.66928 7.14841C9.15704 6.64277 9.86076 6.32258 10.6452 6.32258C11.4296 6.32258 12.1333 6.64277 12.6208 7.14808ZM11.4382 5.62168L11.3081 5.71881L10.0902 4.58206L9.74806 4.90137L10.7942 5.87769C10.7446 5.87571 10.6955 5.87097 10.6452 5.87097C10.4499 5.87097 10.2595 5.88993 10.074 5.9218L9.60654 5.48551L9.26443 5.80481L9.53979 6.06182C9.35905 6.12544 9.18658 6.20383 9.02344 6.29612L8.6388 5.93712L8.29669 6.25643L8.62332 6.56129C8.19627 6.8968 7.86822 7.33695 7.67956 7.83817C7.46444 7.52361 7.14867 7.27531 6.77419 7.13319V7.11632C6.77419 6.84663 6.94206 6.60032 7.1925 6.5034C7.39427 6.42512 7.57501 6.31222 7.72965 6.16789C8.14914 5.77681 8.31287 5.21924 8.1743 4.68438C8.39686 4.47136 8.67022 4.12417 8.70318 3.69648L8.99012 3.33969C9.19331 3.08676 9.51676 2.93592 9.85497 2.93592C10.1439 2.93592 10.4153 3.04089 10.6195 3.23152L11.5296 4.08105C11.7362 4.27334 11.8548 4.54005 11.8548 4.81283C11.8548 5.12938 11.7029 5.4241 11.4382 5.62168ZM11.3502 3.27419L12.6515 2.0596C12.914 1.81461 13.0645 1.47546 13.0645 1.12903H12.5806C12.5806 1.3566 12.4819 1.57932 12.3094 1.7403L12.2477 1.79785C11.8909 1.75562 11.6129 1.47359 11.6129 1.12903C11.6129 0.755592 11.9386 0.451613 12.3387 0.451613C12.5477 0.451613 12.7408 0.534967 12.8824 0.686019L13.0645 0.880403L13.2467 0.686019C13.3882 0.534967 13.5813 0.451613 13.7903 0.451613C14.1904 0.451613 14.5161 0.755592 14.5161 1.12903C14.5161 1.32408 14.4268 1.50435 14.265 1.63644L14.0567 1.80645L14.265 1.97647C14.4268 2.10856 14.5161 2.28883 14.5161 2.48387C14.5161 2.85731 14.1904 3.16129 13.7903 3.16129C13.4212 3.16129 13.119 2.90186 13.0737 2.56877L13.1354 2.51121C13.3079 2.35024 13.5465 2.25806 13.7903 2.25806V1.80645C13.4191 1.80645 13.0558 1.94692 12.7933 2.19191L11.4919 3.4065L11.3502 3.27419Z" fill="black"/>
<path d="M6.53223 10.3872H8.46771V10.8388H6.53223V10.3872Z" fill="black"/>
<path d="M6.53223 11.2903H8.46771V11.7419H6.53223V11.2903Z" fill="black"/>
<path d="M4.59668 10.3872H5.08055V11.742H4.59668V10.3872Z" fill="black"/>
<path d="M5.56445 10.3872H6.04832V11.742H5.56445V10.3872Z" fill="black"/>
<path d="M10.8872 10.3872H12.8227V10.8388H10.8872V10.3872Z" fill="black"/>
<path d="M10.8872 11.2903H12.8227V11.7419H10.8872V11.2903Z" fill="black"/>
<path d="M8.95142 10.3872H9.43529V11.742H8.95142V10.3872Z" fill="black"/>
<path d="M9.91943 10.3872H10.4033V11.742H9.91943V10.3872Z" fill="black"/>
<path d="M2.17749 10.3872H4.11297V10.8388H2.17749V10.3872Z" fill="black"/>
<path d="M2.17749 11.2903H4.11297V11.7419H2.17749V11.2903Z" fill="black"/>
</svg>
