<svg width="18" height="18" viewBox="0 0 18 18" fill="none" xmlns="http://www.w3.org/2000/svg">
<path d="M13.2212 0H4.77898C4.39082 0 4.0752 0.315802 4.0752 0.70396V17.2962C4.0752 17.6844 4.39082 18 4.77898 18H13.2212C13.6093 18 13.9248 17.6844 13.9248 17.2962V0.70396C13.9249 0.315802 13.6093 0 13.2212 0ZM8.30983 16.4851C8.30983 16.1038 8.6185 15.7946 9.00007 15.7946C9.38217 15.7946 9.6903 16.1038 9.6903 16.4851C9.6903 16.8667 9.38217 17.1757 9.00007 17.1757C8.6185 17.1757 8.30983 16.8667 8.30983 16.4851ZM4.61003 15.3016V2.18869H13.3905V15.3016H4.61003Z" fill="#00CC00"/>
</svg>
