<svg width="15" height="13" viewBox="0 0 15 13" fill="none" xmlns="http://www.w3.org/2000/svg">
<path d="M14.0606 2.0141C13.7811 1.69526 13.3952 1.50685 12.956 1.50685H10.7469V1.47786C10.7469 1.11555 10.6138 0.76772 10.3876 0.535836C10.1613 0.289459 9.85526 0.144531 9.52257 0.144531H5.53017C5.18416 0.144531 4.87808 0.289459 4.65184 0.535836C4.42561 0.782212 4.29253 1.11555 4.29253 1.47786V1.50685H2.09671C1.65755 1.50685 1.27161 1.69526 0.992147 2.0141C0.712679 2.31844 0.526367 2.75323 0.526367 3.217V10.4344C0.526367 10.9126 0.699371 11.3329 0.992147 11.6373C1.27161 11.9416 1.67085 12.1445 2.09671 12.1445H12.956C13.3952 12.1445 13.7811 11.9561 14.0606 11.6373C14.3401 11.3329 14.5264 10.8982 14.5264 10.4344V3.217C14.5264 2.73873 14.3534 2.31844 14.0606 2.0141ZM13.8344 10.4344H13.821C13.821 10.6953 13.7279 10.9271 13.5682 11.1011C13.4085 11.275 13.1956 11.3764 12.956 11.3764H2.09671C1.85717 11.3764 1.64424 11.275 1.48454 11.1011C1.32485 10.9271 1.23169 10.6953 1.23169 10.4344V3.217C1.23169 2.95613 1.32485 2.72424 1.48454 2.55033C1.64424 2.37642 1.85717 2.27497 2.09671 2.27497H4.66515C4.86477 2.27497 5.02447 2.10105 5.02447 1.88366V1.46337C5.02447 1.30395 5.0777 1.15902 5.17085 1.05757C5.26401 0.956125 5.39709 0.898154 5.54348 0.898154H9.52257C9.66895 0.898154 9.80203 0.956125 9.89519 1.05757C9.98835 1.15902 10.0416 1.30395 10.0416 1.46337V1.88366C10.0416 2.10105 10.2013 2.27497 10.4009 2.27497H12.9693C13.2089 2.27497 13.4218 2.37642 13.5815 2.55033C13.7412 2.72424 13.8344 2.95613 13.8344 3.217V10.4344Z" fill="black"/>
<path d="M7.52621 3.26074C6.62126 3.26074 5.79617 3.66654 5.21062 4.30422C4.61176 4.95639 4.25244 5.84045 4.25244 6.82596C4.25244 7.81147 4.62507 8.71002 5.21062 9.3477C5.80948 9.99987 6.62126 10.3912 7.52621 10.3912C8.43115 10.3912 9.25624 9.98538 9.8418 9.3477C10.4407 8.69552 10.8 7.81147 10.8 6.82596C10.8 5.84045 10.4273 4.9419 9.8418 4.30422C9.25624 3.66654 8.43115 3.26074 7.52621 3.26074ZM9.33609 8.81147C8.87031 9.30422 8.23153 9.62306 7.52621 9.62306C6.82088 9.62306 6.1821 9.30422 5.71632 8.81147C5.25054 8.30422 4.97107 7.60857 4.97107 6.84045C4.97107 6.07234 5.26385 5.37668 5.71632 4.86944C6.1821 4.36219 6.82088 4.05784 7.52621 4.05784C8.23153 4.05784 8.87031 4.37668 9.33609 4.86944C9.80187 5.37668 10.0813 6.07234 10.0813 6.84045C10.0946 7.60857 9.80187 8.30422 9.33609 8.81147Z" fill="black"/>
<path d="M12.2639 4.66638C12.624 4.66638 12.916 4.34844 12.916 3.95624C12.916 3.56404 12.624 3.24609 12.2639 3.24609C11.9038 3.24609 11.6118 3.56404 11.6118 3.95624C11.6118 4.34844 11.9038 4.66638 12.2639 4.66638Z" fill="black"/>
</svg>
