<svg width="30" height="30" viewBox="0 0 30 30" fill="none" xmlns="http://www.w3.org/2000/svg">
<path d="M27.6562 26.4844C27.6562 27.1316 27.1316 27.6562 26.4844 27.6562H25.3125V28.8281C25.3125 29.4754 24.7879 30 24.1406 30C23.4934 30 22.9688 29.4754 22.9688 28.8281V27.6562H21.7969C21.1496 27.6562 20.625 27.1316 20.625 26.4844C20.625 25.8371 21.1496 25.3125 21.7969 25.3125H22.9688V24.1406C22.9688 23.4934 23.4934 22.9688 24.1406 22.9688C24.7879 22.9688 25.3125 23.4934 25.3125 24.1406V25.3125H26.4844C27.1316 25.3125 27.6562 25.8371 27.6562 26.4844ZM27.6562 8.20312V19.4531C27.6562 20.1004 27.1316 20.625 26.4844 20.625C25.8371 20.625 25.3125 20.1004 25.3125 19.4531V9.375H22.9688V12.8906C22.9688 13.5379 22.4441 14.0625 21.7969 14.0625C21.1496 14.0625 20.625 13.5379 20.625 12.8906V9.375H9.375V12.8906C9.375 13.5379 8.85035 14.0625 8.20312 14.0625C7.5559 14.0625 7.03125 13.5379 7.03125 12.8906V9.375H4.6875V27.6562H17.1094C17.7566 27.6562 18.2812 28.1809 18.2812 28.8281C18.2812 29.4754 17.7566 30 17.1094 30H3.51562C2.8684 30 2.34375 29.4754 2.34375 28.8281V8.20312C2.34375 7.5559 2.8684 7.03125 3.51562 7.03125H7.08668C7.55221 3.07752 10.9232 0 15 0C19.0768 0 22.4478 3.07752 22.9133 7.03125H26.4844C27.1316 7.03125 27.6562 7.5559 27.6562 8.20312ZM20.5464 7.03125C20.0988 4.37432 17.7822 2.34375 15 2.34375C12.2178 2.34375 9.90123 4.37432 9.45357 7.03125H20.5464Z" fill="#0C0C0C"/>
</svg>
