<svg width="14" height="11" viewBox="0 0 14 11" fill="none" xmlns="http://www.w3.org/2000/svg">
<path d="M13.9925 7.88597C13.9576 7.00519 13.8181 6.02867 13.6088 5.1096C13.3996 4.22882 13.138 3.40548 12.8242 2.77362C11.6035 0.418485 10.2783 0.782286 8.69145 1.24182C8.18576 1.37586 7.64519 1.52903 7.08719 1.58648H6.91281C6.35481 1.52903 5.81424 1.37586 5.30855 1.24182C3.72173 0.801434 2.39648 0.418486 1.17584 2.79276C0.861967 3.42463 0.582966 4.24796 0.391152 5.12874C0.181901 6.04782 0.0424001 7.02434 0.00752489 7.90512C-0.0273503 8.88163 0.0598377 9.59009 0.251651 10.0879C0.443465 10.5475 0.722466 10.8347 1.08866 10.9496C1.41997 11.0453 1.8036 11.007 2.20466 10.8155C2.88473 10.5092 3.66942 9.85815 4.43667 9.07311C4.97724 8.49869 5.98862 8.21148 7 8.21148C8.01138 8.21148 9.02276 8.49869 9.56333 9.07311C10.3306 9.85815 11.1153 10.5092 11.7953 10.8155C12.1964 10.9878 12.58 11.0453 12.9113 10.9496C13.2601 10.8347 13.5565 10.5666 13.7483 10.0688C13.9402 9.59009 14.0274 8.88164 13.9925 7.88597ZM13.1555 9.80071C13.0508 10.0688 12.9113 10.222 12.737 10.2794C12.5452 10.3368 12.301 10.2985 12.022 10.1837C11.4117 9.91559 10.6968 9.32203 9.99927 8.59442C9.33664 7.86682 8.16832 7.50302 7 7.50302C5.83168 7.50302 4.66336 7.86682 3.9833 8.55613C3.26836 9.28373 2.55341 9.89645 1.96054 10.1454C1.68153 10.2602 1.43741 10.3177 1.24559 10.2411C1.07122 10.1837 0.931717 10.0305 0.827092 9.76242C0.687591 9.39861 0.617841 8.80505 0.652716 7.92427C0.687591 7.10093 0.809654 6.1627 1.01891 5.28192C1.21072 4.45859 1.45485 3.69269 1.75128 3.11827C2.71035 1.22268 3.82636 1.52903 5.15162 1.91198C5.69218 2.06516 6.25018 2.21834 6.8605 2.27578C6.87794 2.27578 6.87794 2.27578 6.89538 2.27578H7.08719C7.10463 2.27578 7.10463 2.27578 7.12206 2.27578C7.74982 2.21834 8.30782 2.06516 8.84839 1.91198C10.1736 1.54818 11.2896 1.22268 12.2487 3.11827C12.5452 3.69269 12.7893 4.43944 12.9811 5.28192C13.1729 6.1627 13.3124 7.08178 13.3473 7.92427C13.3822 8.80505 13.3124 9.39861 13.1555 9.80071Z" fill="black"/>
<path d="M5.39586 4.15233C5.22148 3.98 5.01223 3.84597 4.7681 3.82682C4.75066 3.57791 4.64604 3.32899 4.4891 3.15666L4.47166 3.13752C4.27985 2.9269 4.03572 2.81201 3.75672 2.81201C3.47772 2.81201 3.21616 2.94604 3.04178 3.13752C2.88484 3.30984 2.76278 3.55876 2.74534 3.82682C2.50121 3.84597 2.29196 3.96086 2.11759 4.13318L2.10015 4.15233C1.90834 4.36295 1.80371 4.63101 1.80371 4.93737C1.80371 5.24373 1.92577 5.53094 2.10015 5.72242C2.27453 5.91389 2.48378 6.02877 2.74534 6.04792C2.76278 6.31599 2.8674 6.5649 3.04178 6.73723C3.23359 6.94785 3.47772 7.06273 3.75672 7.06273C4.03572 7.06273 4.29729 6.9287 4.47166 6.73723C4.6286 6.54575 4.75066 6.31599 4.7681 6.04792C5.01223 6.02877 5.23892 5.91389 5.39586 5.72242C5.58767 5.51179 5.69229 5.24373 5.69229 4.93737C5.69229 4.63101 5.57023 4.3438 5.39586 4.15233ZM4.95992 5.22458C4.89017 5.30117 4.80298 5.33947 4.69835 5.33947H4.45423C4.27985 5.33947 4.12291 5.49265 4.12291 5.70327V5.95218C4.12291 6.06707 4.08804 6.16281 4.01829 6.2394C3.94853 6.31599 3.86135 6.35428 3.75672 6.35428C3.6521 6.35428 3.56491 6.31599 3.49516 6.2394C3.42541 6.16281 3.39053 6.06707 3.39053 5.95218V5.68412C3.39053 5.49265 3.25103 5.32032 3.05922 5.32032H2.81509C2.71047 5.32032 2.62328 5.28203 2.55353 5.20544C2.50121 5.14799 2.4489 5.05226 2.4489 4.93737C2.4489 4.82249 2.48378 4.72675 2.55353 4.65016C2.55353 4.65016 2.55353 4.65016 2.57097 4.63101C2.64072 4.57357 2.7279 4.53528 2.81509 4.53528H3.05922C3.23359 4.53528 3.39053 4.3821 3.39053 4.17148V3.90341C3.39053 3.78853 3.42541 3.69279 3.49516 3.6162C3.56491 3.53961 3.6521 3.50132 3.75672 3.50132C3.86135 3.50132 3.94853 3.53961 4.01829 3.6162C4.01829 3.6162 4.01829 3.6162 4.03572 3.63535C4.08804 3.71194 4.12291 3.80768 4.12291 3.90341V4.17148C4.12291 4.36295 4.26241 4.53528 4.45423 4.53528H4.69835C4.80298 4.53528 4.89017 4.57357 4.95992 4.65016C5.02967 4.72675 5.06454 4.82249 5.06454 4.93737C5.06454 5.05226 5.02967 5.14799 4.95992 5.22458Z" fill="black"/>
<path d="M10.0341 4.24803C10.3712 4.24803 10.6445 3.94799 10.6445 3.57787C10.6445 3.20776 10.3712 2.90771 10.0341 2.90771C9.69708 2.90771 9.42383 3.20776 9.42383 3.57787C9.42383 3.94799 9.69708 4.24803 10.0341 4.24803Z" fill="black"/>
<path d="M10.0341 6.96678C10.3712 6.96678 10.6445 6.66674 10.6445 6.29662C10.6445 5.92651 10.3712 5.62646 10.0341 5.62646C9.69708 5.62646 9.42383 5.92651 9.42383 6.29662C9.42383 6.66674 9.69708 6.96678 10.0341 6.96678Z" fill="black"/>
<path d="M8.79586 5.60741C9.13293 5.60741 9.40618 5.30737 9.40618 4.93725C9.40618 4.56713 9.13293 4.26709 8.79586 4.26709C8.45879 4.26709 8.18555 4.56713 8.18555 4.93725C8.18555 5.30737 8.45879 5.60741 8.79586 5.60741Z" fill="black"/>
<path d="M11.2719 5.60741C11.609 5.60741 11.8823 5.30737 11.8823 4.93725C11.8823 4.56713 11.609 4.26709 11.2719 4.26709C10.9349 4.26709 10.6616 4.56713 10.6616 4.93725C10.6616 5.30737 10.9349 5.60741 11.2719 5.60741Z" fill="black"/>
</svg>
