<svg width="15" height="14" viewBox="0 0 15 14" fill="none" xmlns="http://www.w3.org/2000/svg">
<path d="M5.002 6.96312C5.19982 7.14774 5.19982 7.44702 5.002 7.63168L4.46478 8.13308C4.26696 8.31771 3.9463 8.31771 3.74846 8.13308C3.55064 7.94846 3.55064 7.64915 3.74846 7.46452L4.28568 6.96312C4.48353 6.77824 4.80419 6.77824 5.002 6.96312Z" fill="#5A821E"/>
<path d="M7.39923 1.06131C7.39896 0.604341 7.00207 0.234131 6.51246 0.234131C6.45422 0.234131 6.39621 0.239572 6.3392 0.250209C5.44736 0.416871 4.7503 1.06747 4.57173 1.89984C4.47599 2.34807 4.78754 2.78376 5.26751 2.87312C5.32449 2.88376 5.3825 2.8892 5.44077 2.8892C5.84756 2.8892 6.20191 2.6308 6.3007 2.26272C6.35364 2.06675 6.51776 1.91379 6.728 1.86509C7.12287 1.77267 7.39972 1.44123 7.39923 1.06131Z" fill="#FDB62F"/>
<path d="M9.74686 0.706787C9.25725 0.707033 8.8606 1.07746 8.8606 1.53443C8.8606 1.58879 8.86643 1.64294 8.87782 1.69615C9.05639 2.52852 9.75346 3.17912 10.6453 3.34578C11.1255 3.43514 11.5923 3.14436 11.6881 2.69639C11.6995 2.6432 11.7053 2.58906 11.7053 2.53468C11.7053 2.15501 11.4285 1.82428 11.0341 1.73208C10.8236 1.68313 10.6592 1.5297 10.6068 1.33326C10.508 0.964941 10.1534 0.706787 9.74686 0.706787Z" fill="#8C421C"/>
<path d="M2.59332 4.25884C2.24732 4.58202 2.24759 5.10588 2.59382 5.42905C2.63487 5.46736 2.67992 5.50187 2.72832 5.5319C3.48516 6.00281 4.47097 6.00281 5.22781 5.5319C5.63509 5.27823 5.74502 4.76451 5.47326 4.38438C5.44109 4.33923 5.40412 4.29715 5.36307 4.25884C5.07534 3.99052 4.62903 3.93922 4.28025 4.13448C4.09433 4.2385 3.8618 4.2385 3.67591 4.13448C3.3271 3.93922 2.88081 3.99052 2.59332 4.25884Z" fill="#8C421C"/>
<path d="M10.5654 6.61704C11.055 6.6168 11.4517 6.24637 11.4517 5.7894C11.4517 5.73504 11.4458 5.6809 11.4344 5.62768C11.2559 4.79531 10.5588 4.14471 9.66696 3.97805C9.18672 3.88869 8.7199 4.17947 8.62416 4.62744C8.61276 4.68063 8.60693 4.73477 8.60693 4.78916C8.60693 5.16883 8.88379 5.49955 9.27816 5.59175C9.48866 5.6407 9.65302 5.79413 9.70546 5.99057C9.80425 6.35864 10.1586 6.61704 10.5654 6.61704Z" fill="#FDB62F"/>
<path d="M3.45146 1.79108C3.64927 1.9757 3.64927 2.27501 3.45146 2.45964L2.91424 2.96104C2.71642 3.14567 2.39574 3.14567 2.19792 2.96104C2.00011 2.77642 2.00011 2.47711 2.19792 2.29248L2.73514 1.79108C2.93299 1.60642 3.25364 1.60642 3.45146 1.79108Z" fill="#5A821E"/>
<path d="M0.813705 4.96191C1.09358 4.96191 1.32028 5.1735 1.32028 5.43472V6.14394C1.32028 6.40516 1.09358 6.61674 0.813705 6.61674C0.53383 6.61674 0.307129 6.40516 0.307129 6.14394V5.43472C0.3071 5.1735 0.533801 4.96191 0.813705 4.96191Z" fill="#88B337"/>
<path d="M1.67851 7.67192C1.87632 7.85654 1.87632 8.15585 1.67851 8.34048L1.14129 8.84188C0.943472 9.02651 0.622786 9.02651 0.424972 8.84188C0.227158 8.65726 0.227158 8.35795 0.424972 8.17332L0.962193 7.67192C1.16001 7.48729 1.48066 7.48729 1.67851 7.67192Z" fill="#5A821E"/>
<path d="M4.47227 9.98612C4.47201 9.52915 4.07512 9.15869 3.58551 9.15894C3.52727 9.15894 3.46926 9.16438 3.41201 9.17501C2.52018 9.34143 1.82288 9.99227 1.64482 10.8249C1.54881 11.2731 1.86035 11.7088 2.34036 11.7984C2.3976 11.809 2.45561 11.8145 2.51385 11.8145C2.92038 11.8142 3.27499 11.5559 3.37352 11.1878C3.42619 10.9913 3.59034 10.8381 3.80081 10.789C4.19544 10.6968 4.47227 10.3658 4.47227 9.98612Z" fill="#FDB62F"/>
<path d="M6.757 4.11434C6.55919 3.92972 6.55919 3.63041 6.757 3.44578L7.29421 2.94438C7.49203 2.75975 7.81271 2.75975 8.01052 2.94438C8.20833 3.129 8.20833 3.42831 8.01052 3.61294L7.47331 4.11434C7.27573 4.29897 6.95481 4.29897 6.757 4.11434Z" fill="#88B337"/>
<path d="M13.6141 3.41705C13.8119 3.60168 13.8119 3.90099 13.6141 4.08561L13.0768 4.58702C12.879 4.77165 12.5583 4.77165 12.3605 4.58702C12.1627 4.40239 12.1627 4.10311 12.3605 3.91846L12.8977 3.41705C13.0953 3.2324 13.416 3.2324 13.6141 3.41705Z" fill="#5A821E"/>
<path d="M7.3994 6.14404C7.67927 6.14404 7.90598 6.35563 7.90598 6.61685V7.32607C7.90598 7.58728 7.67927 7.79887 7.3994 7.79887C7.11952 7.79887 6.89282 7.58728 6.89282 7.32607V6.61685C6.89282 6.35563 7.11949 6.14404 7.3994 6.14404Z" fill="#5A821E"/>
<path d="M14.7452 6.26224C14.7449 5.80527 14.348 5.43506 13.8584 5.43506C13.8002 5.43506 13.7422 5.4405 13.6852 5.45114C12.7933 5.6178 12.0962 6.26839 11.9177 7.10077C11.8219 7.54899 12.1335 7.98469 12.6135 8.07405C12.6704 8.08469 12.7285 8.09013 12.7867 8.09013C13.1935 8.09013 13.5479 7.83173 13.6467 7.46365C13.6996 7.26768 13.8637 7.11472 14.074 7.06602C14.4688 6.97359 14.7457 6.64216 14.7452 6.26224Z" fill="#8C421C"/>
<path d="M5.18778 11.1084C4.69817 11.1086 4.30151 11.4791 4.30151 11.936C4.30151 11.9904 4.30734 12.0445 4.31874 12.0978C4.49731 12.9301 5.19437 13.5807 6.08621 13.7474C6.56644 13.8368 7.03326 13.546 7.12901 13.098C7.1404 13.0448 7.14623 12.9907 7.14623 12.9363C7.14623 12.5566 6.86938 12.2259 6.47501 12.1337C6.26454 12.0847 6.10015 11.9313 6.04771 11.7349C5.94892 11.3666 5.59434 11.1084 5.18778 11.1084Z" fill="#8C421C"/>
<path d="M5.99724 8.88285C6.19505 8.69823 6.5157 8.69823 6.71355 8.88285L7.25077 9.38426C7.44858 9.56889 7.44858 9.86819 7.25077 10.0528C7.05295 10.2374 6.7323 10.2374 6.53446 10.0528L5.99724 9.55141C5.79942 9.36703 5.79942 9.06751 5.99724 8.88285Z" fill="#88B337"/>
<path d="M12.7196 11.4274C12.7277 11.0181 12.3786 10.6803 11.9402 10.6727C11.8769 10.6716 11.8135 10.6777 11.7518 10.6907C10.9235 10.8571 10.2763 11.4612 10.098 12.2342C10.002 12.6337 10.2715 13.0302 10.6996 13.1198C10.7611 13.1325 10.8242 13.1387 10.8873 13.1375C11.2654 13.1306 11.5929 12.8904 11.6894 12.5491C11.7411 12.3668 11.8938 12.2242 12.0891 12.176C12.4549 12.086 12.7122 11.7803 12.7196 11.4274Z" fill="#FDB62F"/>
<path d="M14.0899 8.88285C14.2877 9.06748 14.2877 9.36679 14.0899 9.55141L13.5526 10.0528C13.3548 10.2374 13.0342 10.2374 12.8363 10.0528C12.6385 9.86819 12.6385 9.56889 12.8363 9.38426L13.3736 8.88285C13.5711 8.69823 13.8921 8.69823 14.0899 8.88285Z" fill="#88B337"/>
<path d="M8.66576 12.0542C8.94563 12.0542 9.17233 12.2658 9.17233 12.527V13.2362C9.17233 13.4974 8.94563 13.709 8.66576 13.709C8.38588 13.709 8.15918 13.4974 8.15918 13.2362V12.527C8.15912 12.2658 8.38585 12.0542 8.66576 12.0542Z" fill="#5A821E"/>
<path d="M8.50366 9.71192C8.50393 10.1689 8.90081 10.5394 9.39043 10.5391C9.44867 10.5391 9.50668 10.5337 9.56392 10.523C10.4558 10.3566 11.1528 9.70602 11.3311 8.87364C11.4271 8.42542 11.1156 7.98972 10.6356 7.90011C10.5783 7.88947 10.5203 7.88403 10.4621 7.88403C10.0556 7.8845 9.70144 8.14265 9.60292 8.51073C9.55048 8.70741 9.38586 8.86109 9.17512 8.91001C8.78078 9.00202 8.50393 9.3325 8.50366 9.71192Z" fill="#8C421C"/>
<path d="M4.10647 6.79611L3.56925 7.29752C3.27771 7.57933 3.28606 8.02823 3.588 8.30036C3.88258 8.56584 4.3494 8.56584 4.64372 8.30036L5.18094 7.79895C5.47755 7.52212 5.47755 7.07319 5.18094 6.79611C4.88003 6.52825 4.40712 6.52825 4.10647 6.79611ZM4.82278 7.46467L4.28556 7.96608C4.18502 8.05686 4.02467 8.05426 3.92741 7.96017C3.83269 7.86846 3.83269 7.72329 3.92741 7.6318L4.46463 7.13039C4.512 7.08596 4.57657 7.06113 4.64369 7.06113C4.7835 7.06113 4.89699 7.16703 4.89699 7.29754C4.89699 7.36016 4.87016 7.42021 4.82278 7.46467Z" fill="black"/>
<path d="M6.54632 2.32046C6.57647 2.20865 6.66993 2.12139 6.78972 2.09328C7.39864 1.94434 7.76286 1.36279 7.60331 0.794471C7.45158 0.254045 6.87761 -0.0847197 6.28947 0.0188319C5.29656 0.202529 4.52024 0.927089 4.32342 1.8538C4.20538 2.43087 4.61065 2.98809 5.22894 3.09847C5.81913 3.20367 6.39538 2.86323 6.54632 2.32046ZM6.05468 2.2058C5.965 2.52141 5.6185 2.70934 5.28035 2.62589C4.95993 2.5467 4.75907 2.25002 4.82012 1.94576C4.97742 1.20652 5.59671 0.628739 6.38902 0.482421C6.73248 0.420487 7.06456 0.630161 7.13092 0.950742C7.19423 1.25713 6.99161 1.55688 6.66764 1.63489C6.36573 1.7044 6.12992 1.92424 6.05468 2.2058Z" fill="black"/>
<path d="M11.0957 1.50274C10.9759 1.47485 10.8824 1.38762 10.8525 1.27579C10.6965 0.706514 10.0759 0.362801 9.46598 0.508188C8.88089 0.647669 8.51385 1.18902 8.62937 1.74222C8.82642 2.66893 9.6025 3.39327 10.5954 3.57719C10.6694 3.59088 10.7449 3.59775 10.8203 3.59775C11.4497 3.59586 11.9584 3.11783 11.9563 2.53038C11.9546 2.04459 11.6002 1.62166 11.0957 1.50274ZM11.2205 2.99208C11.0739 3.1046 10.8811 3.14953 10.6949 3.11477C9.90239 2.96821 9.28311 2.39019 9.12604 1.65048C9.05969 1.32993 9.28434 1.01998 9.62781 0.95805C9.95609 0.89896 10.2772 1.08807 10.3608 1.39044C10.4361 1.67175 10.6711 1.89113 10.9725 1.96135C11.3117 2.04103 11.5176 2.36205 11.4322 2.67861C11.3993 2.80106 11.3251 2.91051 11.2205 2.9909V2.99208H11.2205V2.99208Z" fill="black"/>
<path d="M5.87023 4.94824C5.93178 4.3636 5.47384 3.8428 4.84744 3.78535C4.60404 3.76312 4.35961 3.8142 4.14987 3.9317C4.04399 3.99103 3.91204 3.99103 3.80616 3.9317C3.26261 3.63548 2.56452 3.80663 2.24714 4.31397C1.94573 4.79577 2.09442 5.41325 2.58781 5.72839C3.42899 6.25391 4.52701 6.25391 5.36819 5.72839C5.65267 5.55202 5.83706 5.26548 5.87023 4.94824ZM5.08732 5.33499C4.4161 5.75437 3.53997 5.75437 2.86874 5.33499C2.58048 5.15012 2.5073 4.78229 2.70511 4.51325C2.89256 4.2584 3.25906 4.18135 3.54553 4.33688C3.81149 4.48654 4.14457 4.48654 4.41053 4.33688C4.71296 4.17282 5.1005 4.26855 5.27629 4.5506C5.44269 4.81797 5.36037 5.15983 5.08732 5.33499Z" fill="black"/>
<path d="M9.2168 5.82058C9.33659 5.84871 9.43008 5.93594 9.4602 6.04775C9.61978 6.61607 10.2429 6.95601 10.8518 6.80709C11.4308 6.66548 11.7938 6.12978 11.6828 5.58085C11.486 4.65414 10.7097 3.92958 9.71678 3.74588C9.09849 3.63571 8.50148 4.01396 8.38321 4.59103C8.2705 5.14187 8.63496 5.67967 9.2168 5.82058ZM9.0919 4.33123C9.20487 4.24447 9.34646 4.19719 9.4926 4.19719C9.5344 4.19719 9.57645 4.20097 9.61746 4.20854C10.4097 4.35511 11.0293 4.93313 11.1861 5.67284C11.2524 5.99339 11.0278 6.30334 10.6843 6.36527C10.356 6.42436 10.0349 6.23525 9.9513 5.93288C9.87633 5.65156 9.64102 5.43194 9.33961 5.36196C9.00047 5.28228 8.79477 4.96102 8.88014 4.64449C8.91307 4.52204 8.98728 4.41258 9.0919 4.33244V4.33123Z" fill="black"/>
<path d="M2.55609 3.33583C2.75771 3.3363 2.95122 3.26159 3.09331 3.12805L3.63053 2.62664C3.93246 2.35454 3.94081 1.90561 3.64928 1.6238C3.35774 1.34199 2.87674 1.3342 2.57481 1.6063C2.56848 1.61196 2.56215 1.61789 2.55606 1.6238L2.01884 2.12521C1.72224 2.40204 1.72224 2.85122 2.01884 3.12805C2.16093 3.26162 2.3542 3.33633 2.55609 3.33583ZM2.37699 2.45949L2.91421 1.95808C3.01476 1.8673 3.1751 1.8699 3.27237 1.96399C3.36709 2.0557 3.36709 2.20087 3.27237 2.29236L2.73515 2.79377C2.6351 2.88337 2.47731 2.88337 2.37726 2.79377C2.32939 2.7498 2.30255 2.6895 2.30305 2.62686C2.30279 2.56399 2.32939 2.50395 2.37699 2.45949Z" fill="black"/>
<path d="M0.0537109 6.14403C0.0537109 6.53576 0.39388 6.85325 0.81359 6.85325C1.2333 6.85325 1.57347 6.53576 1.57347 6.14403V5.43481C1.57347 5.04308 1.2333 4.72559 0.81359 4.72559C0.39388 4.72559 0.0537109 5.0431 0.0537109 5.43483V6.14403ZM0.560287 5.43483C0.560287 5.30435 0.673755 5.19842 0.81359 5.19842C0.953425 5.19842 1.06689 5.30432 1.06689 5.43483V6.14405C1.06689 6.27454 0.953425 6.38047 0.81359 6.38047C0.673755 6.38047 0.560287 6.27457 0.560287 6.14405C0.560287 6.14403 0.560287 5.43483 0.560287 5.43483Z" fill="black"/>
<path d="M2.08028 8.00658C2.08028 7.61485 1.73985 7.29736 1.32017 7.29761C1.11881 7.29761 0.925534 7.37231 0.78318 7.50518L0.245959 8.00658C-0.0559771 8.27868 -0.0643268 8.72762 0.227209 9.00942C0.518744 9.29123 0.999744 9.29902 1.30168 9.02692C1.30801 9.02126 1.31434 9.01533 1.32043 9.00942L1.85765 8.50802C2.0005 8.37537 2.08081 8.19476 2.08028 8.00658ZM1.49949 8.17371L0.962273 8.67511C0.862223 8.76447 0.704429 8.76447 0.60438 8.67511C0.50559 8.58291 0.50559 8.43304 0.60438 8.34083L1.1416 7.83943C1.24062 7.74722 1.40097 7.74722 1.49976 7.83943C1.59855 7.93163 1.59855 8.08126 1.49976 8.17346L1.49949 8.17371Z" fill="black"/>
<path d="M4.72535 9.98593C4.72509 9.39848 4.2147 8.92212 3.58528 8.92236C3.51031 8.92236 3.43584 8.92923 3.36239 8.94293C2.36975 9.12662 1.5934 9.85096 1.39635 10.7774C1.27705 11.3543 1.68156 11.9122 2.29984 12.0235C2.89153 12.1299 3.46953 11.7883 3.61947 11.2436C3.64912 11.1318 3.74258 11.0446 3.86237 11.0169C4.36948 10.8989 4.72561 10.4736 4.72535 9.98593ZM3.73956 10.559C3.43815 10.6287 3.20284 10.8483 3.12813 11.1297C3.03898 11.4453 2.69248 11.6334 2.35433 11.5502C2.03444 11.4712 1.83332 11.1757 1.89308 10.872C2.04962 10.1318 2.66916 9.55305 3.46197 9.40624C3.50302 9.39867 3.54479 9.39465 3.5866 9.39465C3.93641 9.39607 4.21857 9.66202 4.21678 9.9885C4.21552 10.2583 4.0187 10.4928 3.73856 10.5587L3.73956 10.559Z" fill="black"/>
<path d="M8.4123 3.2788C8.4123 2.88707 8.07187 2.56958 7.65219 2.56982C7.45083 2.56982 7.25756 2.64453 7.11521 2.77739L6.57799 3.2788C6.27605 3.55089 6.26771 3.99983 6.55924 4.28163C6.85077 4.56344 7.33177 4.57123 7.6337 4.29913C7.64003 4.29344 7.64636 4.28754 7.65245 4.28163L8.18967 3.78023C8.33252 3.64758 8.41279 3.46698 8.4123 3.2788ZM7.83151 3.44595L7.2943 3.94735C7.19425 4.03696 7.03619 4.03696 6.93614 3.94735C6.83735 3.85515 6.83735 3.70528 6.93614 3.61307L7.47336 3.11167C7.57215 3.01947 7.73273 3.01947 7.83151 3.11167C7.93004 3.20387 7.93004 3.35328 7.83151 3.44595Z" fill="black"/>
<path d="M12.7184 4.96202C12.92 4.96248 13.1133 4.88778 13.2556 4.75469L13.7928 4.25279C14.0894 3.97596 14.0894 3.52678 13.7928 3.24995C13.4922 2.98211 13.0188 2.98211 12.7181 3.24995L12.1809 3.75136C11.8843 4.02843 11.8843 4.47737 12.1812 4.75442C12.3235 4.88731 12.5168 4.96202 12.7184 4.96202ZM12.5393 4.08616L13.0766 3.58475C13.1239 3.54032 13.1885 3.51549 13.2556 3.51549C13.3954 3.51549 13.5089 3.62139 13.5089 3.7519C13.5089 3.81455 13.4823 3.87484 13.4347 3.91903L12.8975 4.42044C12.7969 4.51122 12.6366 4.50862 12.5393 4.41453C12.4444 4.32301 12.4444 4.17762 12.5393 4.08616Z" fill="black"/>
<path d="M6.6394 6.61693V7.32615C6.6394 7.71787 6.97957 8.03536 7.39928 8.03536C7.81899 8.03536 8.15916 7.71787 8.15916 7.32615V6.61693C8.15916 6.2252 7.81899 5.90771 7.39928 5.90771C6.97957 5.90771 6.6394 6.2252 6.6394 6.61693ZM7.65256 6.61693V7.32615C7.65256 7.45663 7.53909 7.56256 7.39925 7.56256C7.25942 7.56256 7.14595 7.45666 7.14595 7.32615V6.61693C7.14595 6.48645 7.25942 6.38052 7.39925 6.38052C7.53906 6.38052 7.65256 6.4862 7.65256 6.61693Z" fill="black"/>
<path d="M13.6349 5.21926C12.642 5.40296 11.8657 6.12752 11.6689 7.05423C11.5508 7.6313 11.9561 8.18852 12.5744 8.2989C13.1645 8.4041 13.7408 8.06369 13.8918 7.52089C13.9219 7.40908 14.0154 7.32182 14.1352 7.29371C14.7441 7.14477 15.1083 6.56322 14.9487 5.9949C14.797 5.4545 14.2231 5.11574 13.6349 5.21926ZM14.0118 6.83535C13.7104 6.90532 13.4751 7.12495 13.4001 7.40626C13.3104 7.72186 12.964 7.9098 12.6258 7.82635C12.3054 7.74716 12.1045 7.45048 12.1656 7.14622C12.3226 6.40676 12.9419 5.82851 13.7345 5.68217C14.0784 5.62259 14.4087 5.83464 14.4725 6.15544C14.5328 6.45945 14.332 6.75542 14.0118 6.83463V6.83535Z" fill="black"/>
<path d="M6.53633 11.9049C6.41653 11.877 6.32305 11.7898 6.29316 11.6779C6.13739 11.1087 5.51659 10.7652 4.90665 10.9105C4.32156 11.05 3.95453 11.5914 4.07005 12.1446C4.2671 13.0713 5.04318 13.7956 6.03608 13.9796C6.11006 13.9932 6.18553 14.0001 6.261 14.0001C6.89041 13.9982 7.39904 13.5202 7.39699 12.9327C7.39523 12.4467 7.04088 12.0238 6.53633 11.9049ZM6.66119 13.3942C6.51453 13.5067 6.32179 13.5517 6.1356 13.5169C5.34306 13.3704 4.72378 12.7923 4.56672 12.0526C4.50288 11.7316 4.73008 11.4233 5.07379 11.3637C5.39952 11.3075 5.71663 11.4949 5.8015 11.7938C5.87674 12.0751 6.11179 12.2945 6.41319 12.3647C6.75234 12.4444 6.95827 12.7654 6.87292 13.0819C6.83979 13.2044 6.76555 13.3139 6.66119 13.3942Z" fill="black"/>
<path d="M6.89288 8.71577C6.59223 8.44793 6.11908 8.44793 5.8184 8.71577C5.5218 8.99284 5.5218 9.44153 5.8184 9.71861L6.35563 10.22C6.64716 10.5018 7.12817 10.5096 7.43011 10.2375C7.73204 9.96542 7.74039 9.51648 7.44886 9.23467C7.44279 9.22877 7.43643 9.22286 7.43011 9.21717L6.89288 8.71577ZM7.07195 9.88549C6.97316 9.97769 6.81258 9.97769 6.71379 9.88549L6.17656 9.38408C6.07777 9.29188 6.07777 9.14201 6.17656 9.0498C6.27535 8.9576 6.43567 8.9576 6.53446 9.0498L7.07168 9.55121C7.17047 9.64341 7.17047 9.79304 7.07168 9.88524L7.07195 9.88549Z" fill="black"/>
<path d="M11.699 10.4594C10.772 10.6438 10.0476 11.3199 9.84999 12.1852C9.72486 12.7121 10.081 13.2341 10.6456 13.3509C10.721 13.3665 10.7983 13.3743 10.8756 13.374H10.89C11.3821 13.366 11.8082 13.0532 11.9331 12.609C11.9617 12.509 12.0455 12.4308 12.1527 12.4043C12.6286 12.2873 12.9632 11.8897 12.972 11.4303C12.9781 11.1327 12.8381 10.8485 12.5916 10.6594C12.3424 10.4689 12.0136 10.3953 11.699 10.4594ZM12.025 11.9473C11.741 12.0171 11.5192 12.2239 11.4444 12.4889C11.3773 12.7279 11.1483 12.8962 10.8837 12.901H10.8761C10.7137 12.9019 10.5592 12.8348 10.4559 12.7178C10.35 12.5963 10.3095 12.4362 10.346 12.2832C10.502 11.6007 11.0731 11.0676 11.8044 10.922C11.8436 10.914 11.8837 10.91 11.9239 10.91C12.2221 10.9086 12.465 11.1329 12.4665 11.4112C12.4665 11.4154 12.4665 11.4197 12.4665 11.4239C12.4612 11.6707 12.2808 11.8844 12.025 11.9473Z" fill="black"/>
<path d="M13.1942 8.71596L12.657 9.21736C12.3604 9.49444 12.3604 9.94313 12.657 10.2202C12.9539 10.497 13.4346 10.497 13.7315 10.2202L14.2687 9.7188C14.5602 9.43699 14.5519 8.98806 14.2499 8.71596C13.9554 8.45048 13.4886 8.45048 13.1942 8.71596ZM13.9105 9.38449L13.3733 9.8859C13.2733 9.9755 13.1155 9.9755 13.0154 9.8859C12.9676 9.84193 12.9407 9.78163 12.9412 9.71899C12.9412 9.65634 12.9678 9.59605 13.0154 9.55186L13.5527 9.05046C13.6532 8.95967 13.8135 8.96227 13.9108 9.05612C14.0055 9.14783 14.0055 9.293 13.9108 9.38471L13.9105 9.38449Z" fill="black"/>
<path d="M8.66564 11.8179C8.24593 11.8179 7.90576 12.1354 7.90576 12.5271V13.2363C7.90576 13.628 8.24593 13.9455 8.66564 13.9455C9.08535 13.9455 9.42552 13.628 9.42552 13.2363V12.5271C9.42549 12.1354 9.08509 11.8179 8.66564 11.8179ZM8.91891 13.2363C8.91891 13.3668 8.80545 13.4727 8.66561 13.4727C8.52578 13.4727 8.41231 13.3668 8.41231 13.2363V12.5271C8.41231 12.3966 8.52578 12.2907 8.66561 12.2907C8.80545 12.2907 8.91891 12.3966 8.91891 12.5271V13.2363Z" fill="black"/>
<path d="M11.5784 8.91994C11.6947 8.34241 11.2874 7.78637 10.6686 7.67812C10.081 7.57503 9.50779 7.91358 9.35582 8.45329C9.32568 8.56488 9.23222 8.65211 9.11266 8.68025C8.50222 8.8235 8.13191 9.40174 8.28543 9.97148C8.41257 10.4431 8.86648 10.7743 9.38749 10.7757C9.46296 10.7757 9.53846 10.7686 9.61241 10.7549C10.6053 10.571 11.3814 9.84663 11.5784 8.91994ZM9.51309 10.2911C9.16964 10.353 8.83756 10.1433 8.7712 9.82276C8.70789 9.51637 8.91051 9.21663 9.23448 9.13861C9.53588 9.06839 9.77094 8.84901 9.84617 8.5677C9.93585 8.25209 10.2823 8.06416 10.6205 8.14761C10.9409 8.2268 11.1418 8.52348 11.0807 8.82774C10.9239 9.56649 10.3054 10.144 9.51412 10.2913L9.51309 10.2911Z" fill="black"/>
</svg>
