<svg width="14" height="10" viewBox="0 0 14 10" fill="none" xmlns="http://www.w3.org/2000/svg">
<path d="M1.33772 9.07576H12.6623C12.8966 9.07576 13.087 8.86309 13.087 8.60166V0.474107C13.087 0.212671 12.8966 0 12.6623 0H1.33772C1.10354 0 0.913046 0.212671 0.913046 0.474107V8.60166C0.913046 8.86309 1.10366 9.07576 1.33772 9.07576ZM1.27705 0.474107C1.27705 0.43672 1.30423 0.406377 1.33772 0.406377H12.6623C12.6958 0.406377 12.7229 0.43672 12.7229 0.474107V8.60166C12.7229 8.63904 12.6958 8.66938 12.6623 8.66938H1.33772C1.30423 8.66938 1.27705 8.63904 1.27705 8.60166V0.474107ZM14 9.43852V9.81794C14 9.91845 13.927 10 13.8369 10H0.163074C0.0730437 10 0 9.91845 0 9.81794V9.43852H5.7497C5.7781 9.54432 5.86497 9.62193 5.96896 9.62193H8.03117C8.13503 9.62193 8.2219 9.54445 8.25042 9.43852H14Z" fill="black"/>
</svg>
