<svg width="25" height="15" viewBox="0 0 25 15" fill="none" xmlns="http://www.w3.org/2000/svg">
<path d="M3.30442 4.75473C2.8954 4.03432 1.97981 3.78188 1.2594 4.19091C0.538989 4.59993 0.286558 5.51552 0.69558 6.23593L3.30442 4.75473ZM6.26087 13L4.95645 13.7406C5.16122 14.1013 5.50619 14.3611 5.90939 14.4582C6.31259 14.5554 6.73803 14.4813 7.08464 14.2536L6.26087 13ZM23.8238 3.25356C24.5161 2.7986 24.7085 1.86855 24.2536 1.17623C23.7986 0.483912 22.8686 0.291488 22.1762 0.746442L23.8238 3.25356ZM0.69558 6.23593L4.95645 13.7406L7.56529 12.2594L3.30442 4.75473L0.69558 6.23593ZM7.08464 14.2536L23.8238 3.25356L22.1762 0.746442L5.4371 11.7464L7.08464 14.2536Z" fill="white"/>
</svg>
