<svg width="38" height="34" viewBox="0 0 38 34" fill="none" xmlns="http://www.w3.org/2000/svg">
<path d="M34 0H3.64286C1.63929 0 0 1.63929 0 3.64286C0 5.64643 1.63929 7.28572 3.64286 7.28572H34C36.0036 7.28572 37.6429 5.64643 37.6429 3.64286C37.6429 1.63929 36.0036 0 34 0Z" fill="white"/>
<path d="M34 13.3571H3.64286C1.63929 13.3571 0 14.9964 0 17C0 19.0035 1.63929 20.6428 3.64286 20.6428H34C36.0036 20.6428 37.6429 19.0035 37.6429 17C37.6429 14.9964 36.0036 13.3571 34 13.3571Z" fill="white"/>
<path d="M34 26.7143H3.64286C1.63929 26.7143 0 28.3536 0 30.3572C0 32.3607 1.63929 34 3.64286 34H34C36.0036 34 37.6429 32.3607 37.6429 30.3572C37.6429 28.3536 36.0036 26.7143 34 26.7143Z" fill="white"/>
</svg>
