<svg width="31" height="31" viewBox="0 0 31 31" fill="none" xmlns="http://www.w3.org/2000/svg">
<path d="M29.7083 16.7649H1.29167C0.578664 16.7649 0 16.1862 0 15.4732C0 14.7602 0.578664 14.1815 1.29167 14.1815H29.7083C30.4213 14.1815 31 14.7602 31 15.4732C31 16.1862 30.4213 16.7649 29.7083 16.7649Z" fill="white"/>
<path d="M29.7083 10.0233H1.29167C0.578664 10.0233 0 9.44467 0 8.73167C0 8.01867 0.578664 7.44 1.29167 7.44H29.7083C30.4213 7.44 31 8.01867 31 8.73167C31 9.44467 30.4213 10.0233 29.7083 10.0233Z" fill="white"/>
<path d="M29.7083 23.6633H1.29167C0.578664 23.6633 0 23.0847 0 22.3717C0 21.6587 0.578664 21.08 1.29167 21.08H29.7083C30.4213 21.08 31 21.6587 31 22.3717C31 23.0847 30.4213 23.6633 29.7083 23.6633Z" fill="white"/>
</svg>
