<svg width="15" height="14" viewBox="0 0 15 14" fill="none" xmlns="http://www.w3.org/2000/svg">
<path d="M13.9489 2.25522C13.8734 2.03412 13.7387 1.86098 13.571 1.73686C13.4674 1.66017 13.4086 1.54225 13.4086 1.41878V0.410156C13.4086 0.296936 13.3103 0.205078 13.1889 0.205078H12.7495C12.6282 0.205078 12.5297 0.296936 12.5297 0.410156V1.26561C12.5297 1.41707 12.4409 1.55721 12.2971 1.62727C12.0899 1.72821 11.9108 1.89142 11.7943 2.11914C11.3032 3.07927 10.4315 5.06714 8.64104 6.735C6.85404 8.40607 4.72418 9.21965 3.69547 9.67809C2.75317 10.098 2.83636 11.3902 3.84127 11.689C4.42824 11.8636 5.08021 11.9472 5.76273 11.9357C7.75423 11.9021 9.84885 10.8596 11.4546 9.36096C13.0604 7.86229 14.1772 5.90732 14.2133 4.04858C14.2255 3.41156 14.1359 2.80305 13.9489 2.25522V2.25522Z" fill="#FFCF5D"/>
<path d="M13.0247 2.37955C13.0644 2.40892 13.0928 2.44972 13.1114 2.5043C13.27 2.96904 13.3451 3.48355 13.3344 4.03384C13.3045 5.57236 12.3694 7.34692 10.8331 8.78098C9.29659 10.215 7.39516 11.0878 5.74675 11.1156C5.28098 11.1235 4.90664 11.4681 4.88501 11.8963C5.16974 11.9275 5.46328 11.9408 5.76266 11.9358C7.75416 11.9021 9.84877 10.8597 11.4545 9.36107C13.0603 7.86229 14.1772 5.90732 14.2132 4.04858C14.2254 3.41156 14.1358 2.80305 13.9488 2.25522C13.8733 2.03412 13.7386 1.86098 13.571 1.73686C13.4673 1.66017 13.4086 1.54225 13.4086 1.41878V0.410156C13.4086 0.296936 13.3103 0.205078 13.1888 0.205078H12.7494C12.6281 0.205078 12.5297 0.296936 12.5297 0.410156V1.41878C12.5297 1.79646 12.7101 2.14659 13.0247 2.37955V2.37955Z" fill="#FFB545"/>
<path d="M2.80087 6.21459L2.06181 5.77784C1.87596 5.66793 1.64238 5.83156 1.7067 6.0266L1.92356 6.68403C2.08515 7.17408 2.41978 7.60005 2.87388 7.89411L3.60001 8.34005C3.60012 7.54152 3.56693 6.66737 2.80087 6.21459Z" fill="#28D05B"/>
<path d="M4.81555 8.04213C4.38948 8.02761 3.97669 8.13111 3.60007 8.32721C3.22367 8.13122 2.81077 8.0275 2.38471 8.04213C1.49378 8.0776 0.85303 8.52353 0.51131 9.09765C0.16833 9.68126 0.124499 10.3932 0.398013 11.1787C0.816295 12.3764 1.92637 13.4495 2.98094 13.5057C3.08451 13.5123 3.18579 13.5102 3.28433 13.5005C3.49284 13.48 3.70742 13.48 3.91593 13.5005C4.01446 13.5102 4.11574 13.5123 4.21931 13.5057C5.27377 13.4495 6.38396 12.3764 6.80224 11.1787C7.07575 10.3932 7.03181 9.68126 6.68894 9.09765C6.34722 8.52353 5.70647 8.0776 4.81555 8.04213Z" fill="#FF5368"/>
<path d="M6.689 9.09769C6.5218 8.81667 6.28273 8.56651 5.97786 8.38013C6.00979 8.42509 6.03989 8.47102 6.06781 8.51791C6.41079 9.10153 6.45473 9.81332 6.18111 10.5989C5.90027 11.4032 5.30746 12.1512 4.62906 12.5729C4.25438 12.8058 3.81229 12.9259 3.36208 12.9259H1.63208C2.05105 13.2631 2.52129 13.4812 2.981 13.5057C3.08456 13.5123 3.18584 13.5103 3.28449 13.5006C3.49449 13.4797 3.70632 13.4799 3.91632 13.5006C4.01474 13.5103 4.11591 13.5122 4.21947 13.5057C5.27393 13.4495 6.38412 12.3765 6.80241 11.1787C7.07592 10.3932 7.03197 9.6813 6.689 9.09769V9.09769Z" fill="#D9435B"/>
<path d="M12.7251 8.43555C12.6328 8.07495 12.2853 7.80664 11.8706 7.80664C11.4558 7.80664 11.1084 8.07495 11.016 8.43555C9.8149 8.77692 8.94092 9.81897 8.94092 11.0516C8.94092 12.5618 10.2525 13.7859 11.8706 13.7859C13.4886 13.7859 14.8003 12.5618 14.8003 11.0516C14.8003 9.81897 13.9263 8.77692 12.7251 8.43555V8.43555Z" fill="#FF983B"/>
<path d="M13.6081 8.8501C13.9669 9.30383 14.179 9.8647 14.179 10.4719C14.179 11.982 12.8674 13.2062 11.2493 13.2062C10.5988 13.2062 9.99786 13.0083 9.51172 12.6734C10.0452 13.3483 10.9031 13.786 11.8706 13.786C13.4885 13.786 14.8003 12.5618 14.8003 11.0516C14.8003 10.1487 14.3312 9.34805 13.6081 8.8501V8.8501Z" fill="#FF7E40"/>
<path d="M13.5442 8.53416L13.3273 7.87673C13.1657 7.38668 12.8312 6.96061 12.377 6.66666L12.0903 6.49053C11.9017 6.37475 11.6509 6.501 11.6509 6.71163V7.00301C11.6509 7.55138 11.9318 8.03994 12.45 8.34617L13.1891 8.78303C13.3749 8.89272 13.6086 8.7292 13.5442 8.53416V8.53416Z" fill="#28D05B"/>
<path d="M9.84441 3.45413C9.79497 3.3517 9.66256 3.30918 9.55144 3.35212L9.4283 3.39976L9.5226 3.31175C9.60763 3.23228 9.61633 3.10186 9.53382 3.02015C9.44844 2.93566 9.30574 2.93406 9.2183 3.01566L9.1176 3.10966L9.17207 2.98683C9.21853 2.88215 9.16532 2.7622 9.05317 2.71883C8.94101 2.67536 8.8125 2.72524 8.76604 2.82992L8.64679 3.09876C8.61841 3.16264 8.62733 3.23036 8.66201 3.28355C8.72072 3.37391 8.71133 3.48874 8.63134 3.5635C8.54631 3.64287 8.53773 3.77328 8.62024 3.85499C8.70573 3.93959 8.84832 3.94098 8.93564 3.85948L8.93987 3.85553C9.02101 3.7798 9.14529 3.77157 9.24405 3.82605C9.30093 3.85745 9.37268 3.86514 9.44009 3.83908L9.72814 3.72778C9.84235 3.68367 9.89545 3.56009 9.84441 3.45413V3.45413Z" fill="#28D05B"/>
<path d="M9.23502 3.5802C9.07458 3.54004 8.90761 3.58768 8.79786 3.69876L8.07689 3.48877L7.54348 4.0114L7.317 4.79977C7.31449 4.79913 7.31197 4.79828 7.30934 4.79764C7.07496 4.73878 6.83395 4.86856 6.77101 5.08731C6.70807 5.30606 6.847 5.53111 7.08137 5.58986C7.31586 5.64861 7.55687 5.51883 7.61981 5.30008C7.63789 5.23706 7.64075 5.17233 7.62611 5.10878C7.67097 5.23535 7.7822 5.34045 7.93063 5.37762C8.16512 5.43626 8.40602 5.30638 8.46884 5.08763C8.48819 5.02045 8.48899 4.94995 8.47102 4.88255C8.49093 4.94707 8.52812 5.00784 8.5826 5.05869C8.75414 5.2189 9.03246 5.2189 9.20401 5.05869C9.37567 4.89847 9.37567 4.63881 9.20401 4.4787C9.14988 4.42818 9.08362 4.39261 9.01255 4.37392C9.24544 4.42946 9.48336 4.29979 9.54573 4.08253C9.60856 3.86378 9.46951 3.63884 9.23502 3.5802Z" fill="#D9435B"/>
<path d="M8.61332 3.00067C8.28648 2.91906 7.98813 3.19912 8.07511 3.50289C8.0243 3.32505 7.85103 3.19901 7.65065 3.19901C7.53827 3.19901 7.42577 3.23907 7.33994 3.31918C7.16828 3.4794 7.16828 3.73905 7.33994 3.89916C7.39922 3.9546 7.47098 3.99092 7.54696 4.00801C7.30767 3.94253 7.06185 4.07519 6.99868 4.29565C6.93597 4.51451 7.07513 4.73934 7.30962 4.79788C7.5441 4.85641 7.785 4.72642 7.84771 4.50767C7.86763 4.43814 7.86763 4.36508 7.84771 4.29565C7.89738 4.46569 8.06286 4.59942 8.27217 4.59942C8.27286 4.59942 8.27355 4.59931 8.27423 4.59931C8.6607 4.59771 8.85983 4.15765 8.58288 3.89927C8.52589 3.84597 8.45848 3.81126 8.38787 3.79342C8.62179 3.85089 8.86166 3.72111 8.92426 3.50279C8.98697 3.28404 8.8477 3.0592 8.61332 3.00067V3.00067Z" fill="#FF5368"/>
<path d="M8.64803 0.757257C8.60156 0.652689 8.47304 0.603021 8.36089 0.64628L8.22917 0.697229L8.32999 0.603128C8.41582 0.523019 8.41582 0.393243 8.32999 0.313135C8.24416 0.233026 8.10511 0.233026 8.01928 0.313135L7.91846 0.407236L7.97304 0.284296C8.01951 0.179727 7.96629 0.0596711 7.85414 0.0164124C7.7421 -0.0269531 7.61347 0.0227143 7.567 0.12739L7.44775 0.396234L8.24107 1.13654L8.52912 1.02525C8.64127 0.981882 8.69449 0.861932 8.64803 0.757257Z" fill="#28D05B"/>
<path d="M6.35293 0.610942C6.81059 0.183803 7.49037 0.241802 7.94802 0.668941C8.40567 1.09608 8.46781 1.73065 8.01016 2.15779C7.55251 2.58493 6.33405 3.02958 5.8764 2.60244C5.41875 2.1753 5.89528 1.03808 6.35293 0.610942V0.610942Z" fill="#FF5368"/>
<path d="M7.94799 0.66893C7.83813 0.566391 7.71533 0.485428 7.58601 0.427002C7.78411 0.809067 7.73673 1.2534 7.38894 1.578C7.04116 1.9026 6.25426 2.23682 5.69556 2.19142C5.71101 2.35623 5.76651 2.49989 5.87637 2.60243C6.33402 3.02957 7.55248 2.58492 8.01013 2.15778C8.46778 1.73064 8.40564 1.09607 7.94799 0.66893Z" fill="#D9435B"/>
<path d="M5.625 4.2041C5.625 4.95926 4.96914 5.57129 4.16016 5.57129C3.35117 5.57129 2.69531 4.95926 2.69531 4.2041C2.69531 3.44905 3.35117 2.83691 4.16016 2.83691C4.96914 2.83691 5.625 3.44905 5.625 4.2041Z" fill="#5C87BD"/>
<path d="M4.83774 2.99219C4.94371 3.18135 5.00391 3.39636 5.00391 3.62451C5.00391 4.37967 4.34805 4.9917 3.53906 4.9917C3.2945 4.9917 3.06425 4.93552 2.86157 4.83661C3.10613 5.27325 3.59571 5.57147 4.16025 5.57147C4.96923 5.57147 5.62509 4.95944 5.62509 4.20428C5.62509 3.67738 5.30557 3.22044 4.83774 2.99219Z" fill="#456EA2"/>
<path d="M13.742 8.70631C13.7615 8.63347 13.76 8.55539 13.7349 8.47923L13.5183 7.82149C13.3432 7.28967 12.9761 6.8212 12.4846 6.50226C12.4831 6.5013 12.4816 6.50044 12.4801 6.49948L12.1938 6.32324C11.8599 6.11784 11.4148 6.34225 11.4148 6.71588V7.00748C11.4148 7.23296 11.4577 7.44904 11.5389 7.64899C11.2105 7.7402 10.9435 7.97134 10.8236 8.27896C10.2375 8.46941 9.7136 8.82594 9.33869 9.29196C8.94124 9.78596 8.72494 10.3714 8.70972 10.9889C8.08636 11.2854 7.463 11.4959 6.85006 11.617C7.33941 10.5725 7.34994 9.3788 6.51566 8.54823C6.87157 8.34102 7.21077 8.12462 7.5264 7.90245C7.97993 7.5834 8.40268 7.24086 8.78331 6.88432C10.2416 5.52248 11.0806 4.00928 11.8037 2.55194C11.9772 2.20224 12.0576 1.96886 12.3811 1.81024C12.5971 1.70428 12.7313 1.49611 12.7313 1.26625V0.41037H13.1702V1.41953C13.1702 1.60826 13.2598 1.7829 13.4154 1.89857C13.5585 2.00528 13.6612 2.1467 13.7203 2.31888C14.2061 3.74631 13.9676 5.25288 13.2829 6.60693C13.2146 6.7412 13.3187 6.8997 13.481 6.8997C13.5654 6.8997 13.6434 6.85367 13.6793 6.78253L13.6797 6.78232C13.9073 6.33189 14.0849 5.87688 14.2071 5.42955C14.5124 4.31422 14.4711 3.17262 14.1383 2.19434C14.0541 1.94589 13.8985 1.73248 13.6881 1.57707C13.6386 1.54065 13.6091 1.48158 13.6091 1.41953V0.41037C13.6091 0.184143 13.4122 0 13.1702 0H12.7313C12.4894 0.000213624 12.2926 0.184143 12.2924 0.41037V1.26625C12.2924 1.34198 12.2473 1.41258 12.178 1.44623C11.7203 1.66914 11.5959 1.99609 11.4058 2.37848C10.8309 3.5377 9.99672 5.17203 8.47317 6.59401C7.81502 7.21042 7.06029 7.75804 6.16982 8.2654C5.7885 8.01044 5.32525 7.8624 4.81564 7.8421C4.53023 7.83228 4.24859 7.86966 3.97347 7.95329C4.3834 7.19707 4.99062 6.67401 5.78541 6.39459C6.02597 6.61975 6.31276 6.30733 6.11489 6.12233L5.99793 6.01285C5.93911 5.95795 5.85225 5.93872 5.77328 5.96329C4.93088 6.22594 4.25099 6.73639 3.76977 7.45918C3.69401 6.92128 3.48595 6.38412 2.91295 6.04489L2.17492 5.60782C2.01104 5.51083 1.80562 5.51927 1.65146 5.6295C1.49891 5.73845 1.43677 5.91939 1.49308 6.0905L1.70971 6.74835C1.84704 7.16545 2.10293 7.54324 2.44397 7.84082C1.58566 7.84552 0.767293 8.24596 0.316511 9.00475C-0.0571389 9.64177 -0.101885 10.4179 0.187078 11.2493C0.404058 11.8717 0.796819 12.4666 1.29315 12.9244C1.8166 13.4073 2.40964 13.6895 2.96044 13.719C3.07477 13.7262 3.18966 13.7242 3.30136 13.7132C3.49534 13.694 3.69217 13.694 3.88604 13.7131C3.95436 13.7199 4.02348 13.7233 4.09237 13.7233C4.13666 13.7233 4.18095 13.7219 4.22467 13.7191C4.78074 13.6894 5.37617 13.4048 5.901 12.9177C6.16673 12.6711 6.40225 12.3852 6.59703 12.0777C7.30107 11.9739 8.01804 11.7586 8.73398 11.4357C8.93254 12.8801 10.2558 13.9999 11.8535 13.9999C13.588 13.9999 14.9989 12.6805 14.9989 11.0586C14.9991 10.127 14.5327 9.2612 13.742 8.70631V8.70631ZM2.12914 6.62755L1.91262 5.9697C1.9109 5.96468 1.90987 5.96136 1.918 5.95549C1.93562 5.94299 1.88172 5.91992 2.67823 6.3916V6.39171C3.22182 6.71353 3.34382 7.28348 3.36854 7.96088L2.99145 7.72878C2.58141 7.46217 2.27517 7.07114 2.12914 6.62755ZM6.58318 11.1221C6.20289 12.2132 5.1743 13.2572 4.19732 13.3095C4.10851 13.3151 4.01936 13.3136 3.93227 13.3051C3.82 13.2939 3.70694 13.2884 3.59387 13.2884C3.48069 13.2884 3.36762 13.294 3.25524 13.3051C3.16849 13.3136 3.07934 13.3151 2.98791 13.3094C2.54124 13.2854 2.04892 13.045 1.60134 12.6323C1.1541 12.2197 0.800024 11.6834 0.604444 11.1223C0.353933 10.4013 0.387464 9.73737 0.700803 9.20309C1.04241 8.62791 1.65776 8.28142 2.38789 8.25226C2.72572 8.24072 3.05943 8.31079 3.38158 8.46022L3.47313 8.51651C3.55874 8.56917 3.67707 8.56148 3.75363 8.48511C4.09192 8.31859 4.44382 8.2404 4.79836 8.25226C6.16433 8.30673 7.15321 9.48209 6.58318 11.1221ZM11.8536 6.71588C11.8536 6.66835 11.9095 6.63972 11.9525 6.66611C12.2163 6.82846 12.5533 7.00342 12.8502 7.44028C12.8567 7.49699 12.8881 7.5504 12.9404 7.58554C13.0047 7.6994 13.0582 7.8186 13.0989 7.94218L13.3155 8.59993C13.3171 8.60495 13.3183 8.60837 13.31 8.61414C13.2993 8.62183 13.2927 8.61798 13.2879 8.6152L12.5498 8.17802C11.7986 7.73326 11.8536 7.08652 11.8536 6.71588V6.71588ZM11.8536 13.5895C10.3613 13.5895 9.14711 12.4541 9.14711 11.0586C9.14711 10.0384 9.78432 9.14136 10.7621 8.74167C10.7788 8.88918 10.83 9.03241 10.9142 9.16272C10.9554 9.22649 11.028 9.26173 11.1022 9.26173C11.1409 9.26173 11.18 9.25212 11.2155 9.23215C11.3192 9.17351 11.3525 9.04726 11.2898 8.95027C11.2001 8.81152 11.1729 8.64757 11.2136 8.48863C11.2668 8.28035 11.428 8.11928 11.6341 8.05156V8.62386C11.6341 8.73611 11.7268 8.83417 11.8469 8.83748C11.9712 8.841 12.0731 8.74786 12.0731 8.6324V8.35725C12.2105 8.46791 12.3052 8.51907 12.5113 8.64116C12.5097 8.74979 12.4778 8.85713 12.4175 8.95027C12.3548 9.04726 12.388 9.17351 12.4918 9.23215C12.5272 9.25212 12.5664 9.26173 12.6051 9.26173C12.6793 9.26173 12.7518 9.22649 12.7931 9.16272C12.8497 9.07524 12.8915 8.98029 12.9178 8.88181L13.0531 8.96191C13.1291 9.00699 13.214 9.02921 13.2986 9.02921C13.3462 9.02921 13.3937 9.02205 13.4396 9.00795C14.1435 9.48422 14.5602 10.2419 14.5602 11.0586C14.5602 12.4541 13.3461 13.5895 11.8536 13.5895V13.5895Z" fill="black"/>
<path d="M4.15408 5.78011C5.08173 5.78011 5.83647 5.0744 5.83647 4.20688C5.83647 3.33936 5.08173 2.63354 4.15408 2.63354C3.2263 2.63354 2.47168 3.33936 2.47168 4.20688C2.47168 5.0744 3.2263 5.78011 4.15408 5.78011ZM4.15408 3.04402C4.83969 3.04402 5.39759 3.56569 5.39759 4.20688C5.39759 4.84807 4.83969 5.36974 4.15408 5.36974C3.46835 5.36974 2.91056 4.84807 2.91056 4.20688C2.91056 3.56569 3.46835 3.04402 4.15408 3.04402Z" fill="black"/>
<path d="M3.71321 4.07839C3.75601 4.11845 3.8122 4.13842 3.8684 4.13842C3.92447 4.13842 3.98066 4.11845 4.02358 4.07839L4.08778 4.01826L4.15209 4.07839C4.1949 4.11845 4.25109 4.13842 4.30728 4.13842C4.36347 4.13842 4.41954 4.11845 4.46246 4.07839C4.54818 3.99818 4.54818 3.86829 4.46246 3.78819L4.39814 3.72805L4.46246 3.66792C4.54818 3.58781 4.54818 3.45782 4.46246 3.37771C4.37674 3.2976 4.23781 3.2976 4.15209 3.37771L4.08778 3.43784L4.02358 3.37771C3.93786 3.2976 3.79893 3.2976 3.71321 3.37771C3.6275 3.45782 3.6275 3.58781 3.71321 3.66792L3.77741 3.72805L3.71321 3.78819C3.6275 3.86829 3.6275 3.99818 3.71321 4.07839Z" fill="black"/>
<path d="M8.15453 2.30485C8.52097 1.96209 8.61824 1.4856 8.45299 1.05088L8.51754 1.02589C8.62946 0.982523 8.68267 0.862573 8.63621 0.757791C8.58986 0.653116 8.46146 0.603449 8.34954 0.646814L8.24345 0.68783C8.24128 0.685159 8.23933 0.682489 8.23716 0.679819L8.31864 0.603555C8.40435 0.523447 8.40435 0.393457 8.31864 0.313348C8.23292 0.23324 8.09399 0.23324 8.00827 0.313348L7.92656 0.389825C7.9237 0.387796 7.92096 0.385873 7.9181 0.383951L7.96215 0.284509C8.0085 0.179834 7.9554 0.0597779 7.84337 0.0164124C7.73156 -0.0269531 7.60304 0.0227143 7.55669 0.12739L7.53014 0.187524C7.06139 0.0307251 6.55545 0.124185 6.18901 0.466837C5.67665 0.945993 5.13569 2.20979 5.71316 2.74983C6.29406 3.29318 7.64824 2.77834 8.15453 2.30485V2.30485ZM5.97454 1.66451C6.0804 1.31631 6.29132 0.951654 6.49937 0.75715C6.87153 0.409052 7.41284 0.469827 7.78202 0.815149C8.1717 1.17948 8.19779 1.68395 7.84417 2.01464C7.63611 2.20925 7.2461 2.40643 6.87382 2.50544C6.48312 2.60926 6.1652 2.59228 6.02341 2.45962C5.88173 2.32717 5.86342 2.02992 5.97454 1.66451Z" fill="black"/>
<path d="M7.16005 1.68623C7.24577 1.60612 7.24577 1.47613 7.16005 1.39602C7.07434 1.31591 6.9354 1.31591 6.84969 1.39602C6.76397 1.47613 6.76397 1.60612 6.84969 1.68623C6.9354 1.76633 7.07434 1.76633 7.16005 1.68623Z" fill="black"/>
<path d="M6.53936 2.26655C6.62508 2.18644 6.62508 2.05645 6.53936 1.97634C6.45364 1.89623 6.31471 1.89623 6.229 1.97634C6.14339 2.05645 6.14339 2.18644 6.229 2.26655C6.31471 2.34676 6.45364 2.34676 6.53936 2.26655Z" fill="black"/>
<path d="M6.53936 1.68623C6.62508 1.60612 6.62508 1.47613 6.53936 1.39602C6.45364 1.31591 6.31471 1.31591 6.229 1.39602C6.14339 1.47613 6.14339 1.60612 6.229 1.68623C6.31471 1.76633 6.45364 1.76633 6.53936 1.68623Z" fill="black"/>
<path d="M7.16005 2.26655C7.24577 2.18644 7.24577 2.05645 7.16005 1.97634C7.07434 1.89623 6.9354 1.89623 6.84969 1.97634C6.76397 2.05645 6.76397 2.18644 6.84969 2.26655C6.9354 2.34676 7.07434 2.34676 7.16005 2.26655Z" fill="black"/>
<path d="M7.78054 1.68623C7.86626 1.60612 7.86626 1.47613 7.78054 1.39602C7.69494 1.31591 7.55589 1.31591 7.47029 1.39602C7.38458 1.47613 7.38458 1.60612 7.47029 1.68623C7.55589 1.76633 7.69494 1.76633 7.78054 1.68623Z" fill="black"/>
<path d="M7.16005 1.1059C7.24577 1.02579 7.24577 0.895805 7.16005 0.815697C7.07434 0.735588 6.9354 0.735588 6.84969 0.815697C6.76397 0.895912 6.76397 1.02579 6.84969 1.1059C6.9354 1.18601 7.07434 1.18601 7.16005 1.1059Z" fill="black"/>
<path d="M8.14943 2.87009C8.0636 2.91816 7.99093 2.98374 7.93669 3.06032C7.69613 2.94838 7.38874 2.97615 7.17463 3.17643C6.9636 3.37371 6.92984 3.6606 7.05252 3.88918C6.91897 3.97078 6.81952 4.09639 6.77683 4.2455C6.7346 4.39333 6.75257 4.5465 6.82581 4.68183C6.67349 4.77465 6.56832 4.92311 6.53662 5.09134C6.47642 5.41007 6.69363 5.7195 7.03089 5.79587C7.31138 5.85932 7.58764 5.7461 7.73687 5.53472C7.9289 5.62529 8.16728 5.62754 8.3703 5.51368C8.4567 5.46518 8.52972 5.39896 8.58419 5.32141C8.82372 5.43367 9.1311 5.40879 9.34648 5.20745C9.55625 5.01123 9.59127 4.72477 9.4687 4.49544C9.60935 4.40989 9.71132 4.27594 9.75046 4.11594C9.78273 3.98403 9.76522 3.84998 9.70949 3.73217C9.81958 3.69265 9.87714 3.57836 9.83812 3.47347C9.79829 3.36634 9.67321 3.30994 9.55865 3.347L9.42934 3.38909L9.51597 3.30812C9.60168 3.22802 9.60168 3.09803 9.51597 3.01792C9.43025 2.93781 9.29132 2.93781 9.2056 3.01792L9.11897 3.09888L9.16395 2.97797C9.20377 2.87094 9.14335 2.75399 9.02879 2.71671C8.91721 2.6805 8.79556 2.73348 8.75276 2.83548C8.56519 2.75847 8.341 2.76285 8.14943 2.87009V2.87009ZM8.70001 3.45221C8.69566 3.46727 8.69348 3.48244 8.6928 3.49739L8.61303 3.57206C8.41345 3.75866 8.70481 4.06659 8.94067 3.84603C9.01678 3.77457 9.09895 3.75972 9.17905 3.78493C9.3823 3.8488 9.37612 4.13207 9.15777 4.17949C8.94147 4.22638 8.86915 4.47942 9.03108 4.6218C9.07411 4.65961 9.0994 4.71398 9.10032 4.77069C9.10318 4.95259 8.85942 5.0514 8.71969 4.91222C8.56909 4.76183 8.2974 4.82987 8.24762 5.03078C8.20883 5.18673 7.99631 5.24836 7.87271 5.12499C7.72177 4.97428 7.45077 5.04264 7.40042 5.2444C7.37501 5.34619 7.26114 5.42577 7.13411 5.39693C6.94941 5.35517 6.90157 5.12082 7.069 5.0232C7.16192 4.96904 7.24134 5.00151 7.27396 5.00611C7.54438 5.06058 7.80908 4.94608 7.95053 4.73406C7.9701 4.74388 7.99047 4.75286 8.01142 4.76097C8.47341 4.93871 8.97363 4.56882 8.72621 4.33736C8.6405 4.25725 8.50157 4.25725 8.41585 4.33736C8.28161 4.46286 8.06028 4.37656 8.04254 4.21645C8.02732 3.88736 7.59268 3.94088 7.6024 4.19883C7.60458 4.3709 7.64635 4.47889 7.53099 4.56711C7.47766 4.60791 7.40671 4.61817 7.35968 4.60343C7.30783 4.60343 7.15689 4.50516 7.20083 4.35157C7.22178 4.27819 7.28415 4.2219 7.36345 4.20449C7.57883 4.15738 7.65219 3.90371 7.49037 3.7625C7.44699 3.72469 7.42147 3.67032 7.42044 3.61339C7.41713 3.43074 7.66409 3.3328 7.80084 3.46898C7.95145 3.61905 8.22222 3.55133 8.27257 3.35085C8.28596 3.29798 8.32315 3.25119 8.37465 3.22235C8.5399 3.12986 8.75162 3.27192 8.70001 3.45221V3.45221Z" fill="black"/>
<path d="M10.7134 9.69336C10.7134 9.80669 10.615 9.89844 10.4937 9.89844C10.3722 9.89844 10.2739 9.80669 10.2739 9.69336C10.2739 9.58014 10.3722 9.48828 10.4937 9.48828C10.615 9.48828 10.7134 9.58014 10.7134 9.69336Z" fill="black"/>
<path d="M11.2993 10.459C11.2993 10.5722 11.2009 10.6641 11.0796 10.6641C10.9583 10.6641 10.8599 10.5722 10.8599 10.459C10.8599 10.3457 10.9583 10.2539 11.0796 10.2539C11.2009 10.2539 11.2993 10.3457 11.2993 10.459Z" fill="black"/>
<path d="M10.1274 11.0605C10.1274 11.1738 10.0291 11.2656 9.90771 11.2656C9.78641 11.2656 9.68799 11.1738 9.68799 11.0605C9.68799 10.9473 9.78641 10.8555 9.90771 10.8555C10.0291 10.8555 10.1274 10.9473 10.1274 11.0605Z" fill="black"/>
</svg>
