<svg width="18" height="18" viewBox="0 0 18 18" fill="none" xmlns="http://www.w3.org/2000/svg">
<g clip-path="url(#clip0)">
<path d="M17.5277 13.8868L13.8844 11.4571C13.4221 11.1513 12.8023 11.2519 12.4605 11.6884L11.3993 13.0529C11.2629 13.2327 11.015 13.2849 10.8176 13.1753L10.6158 13.064C9.94657 12.6992 9.11391 12.2451 7.43626 10.5669C5.75861 8.88861 5.30358 8.05532 4.93881 7.38735L4.82812 7.18547C4.71701 6.9882 4.76819 6.73923 4.94809 6.60175L6.31167 5.54083C6.74797 5.19898 6.84875 4.57941 6.54325 4.11693L4.11361 0.473665C3.80052 0.00271111 3.17237 -0.138666 2.68767 0.152701L1.16419 1.06786C0.685504 1.34928 0.33431 1.80505 0.184251 2.33966C-0.364352 4.33856 0.0483563 7.78835 5.13021 12.8708C9.17272 16.913 12.1822 18 14.2507 18C14.7267 18.0021 15.2009 17.9401 15.6605 17.8159C16.1952 17.666 16.651 17.3148 16.9323 16.8359L17.8483 15.3134C18.1401 14.8286 17.9988 14.2 17.5277 13.8868ZM17.3315 15.0056L16.4175 16.5291C16.2156 16.8747 15.8877 17.1288 15.5027 17.2382C13.6573 17.7448 10.4334 17.3252 5.55463 12.4464C0.675838 7.5676 0.25624 4.34397 0.762872 2.49836C0.872402 2.11283 1.12683 1.78455 1.47285 1.58229L2.99633 0.668331C3.20664 0.541787 3.47927 0.603126 3.61513 0.807494L4.93495 2.78899L6.0427 4.45044C6.17536 4.65105 6.13177 4.91992 5.94252 5.06836L4.57862 6.12929C4.16356 6.44667 4.04503 7.02093 4.30058 7.4767L4.40888 7.67347C4.79223 8.37657 5.26885 9.25123 7.00889 10.991C8.74894 12.7307 9.62332 13.2074 10.3261 13.5907L10.5232 13.6993C10.9789 13.9548 11.5532 13.8363 11.8706 13.4212L12.9315 12.0573C13.08 11.8682 13.3487 11.8246 13.5494 11.9572L17.1924 14.3868C17.3969 14.5225 17.4582 14.7953 17.3315 15.0056Z" fill="#00CC00"/>
<path d="M10.1994 3.00153C13.0143 3.00466 15.2954 5.28585 15.2986 8.10078C15.2986 8.26645 15.4329 8.40073 15.5986 8.40073C15.7642 8.40073 15.8985 8.26645 15.8985 8.10078C15.895 4.95466 13.3455 2.40509 10.1994 2.40164C10.0337 2.40164 9.89941 2.53592 9.89941 2.70159C9.89941 2.86725 10.0337 3.00153 10.1994 3.00153Z" fill="#00CC00"/>
<path d="M10.1994 4.80127C12.0207 4.80342 13.4967 6.27941 13.4989 8.10079C13.4989 8.26646 13.6332 8.40074 13.7988 8.40074C13.9645 8.40074 14.0988 8.26646 14.0988 8.10079C14.0963 5.94822 12.3519 4.20385 10.1994 4.20139C10.0337 4.20139 9.89941 4.33566 9.89941 4.50133C9.89941 4.667 10.0337 4.80127 10.1994 4.80127Z" fill="#00CC00"/>
<path d="M10.1994 6.60102C11.0272 6.602 11.6981 7.27289 11.6991 8.10081C11.6991 8.26647 11.8335 8.40075 11.9991 8.40075C12.1647 8.40075 12.299 8.26647 12.299 8.10081C12.2977 6.94174 11.3584 6.00243 10.1994 6.00113C10.0337 6.00113 9.89941 6.13541 9.89941 6.30107C9.89941 6.46674 10.0337 6.60102 10.1994 6.60102Z" fill="#00CC00"/>
</g>
<defs>
<clipPath id="clip0">
<rect width="18" height="18" fill="white"/>
</clipPath>
</defs>
</svg>
