<svg width="30" height="30" viewBox="0 0 30 30" fill="none" xmlns="http://www.w3.org/2000/svg">
<g clip-path="url(#clip0)">
<path d="M29.2128 23.144L23.1407 19.0946C22.3701 18.5849 21.3372 18.7526 20.7675 19.4801L18.9988 21.7542C18.7715 22.0539 18.3583 22.1409 18.0294 21.9582L17.693 21.7727C16.5776 21.1648 15.1899 20.4079 12.3938 17.6109C9.59768 14.8138 8.83929 13.425 8.23136 12.3117L8.04687 11.9752C7.86169 11.6464 7.94699 11.2315 8.24682 11.0023L10.5195 9.23413C11.2466 8.66439 11.4146 7.63177 10.9054 6.86097L6.85601 0.788861C6.3342 0.00393869 5.28728 -0.23169 4.47945 0.253921L1.94032 1.77918C1.14251 2.24821 0.557184 3.00783 0.307084 3.89885C-0.607253 7.23035 0.0805938 12.98 8.55035 21.4508C15.2879 28.1877 20.3036 29.9995 23.7511 29.9995C24.5445 30.0029 25.3349 29.8997 26.1008 29.6926C26.992 29.4428 27.7517 28.8574 28.2205 28.0593L29.7472 25.5217C30.2336 24.7137 29.998 23.6661 29.2128 23.144ZM28.8858 25.0087L27.3625 27.5479C27.026 28.1239 26.4795 28.5474 25.8377 28.7297C22.7622 29.5741 17.389 28.8747 9.25771 20.7434C1.1264 12.6121 0.427066 7.23937 1.27145 4.16336C1.454 3.5208 1.87804 2.97367 2.45475 2.63658L4.99389 1.11331C5.3444 0.902399 5.79879 1.00463 6.02522 1.34524L8.22491 4.64774L10.0712 7.41682C10.2923 7.75117 10.2196 8.19929 9.9042 8.44669L7.63104 10.2149C6.93926 10.7439 6.74172 11.701 7.16763 12.4606L7.34813 12.7885C7.98706 13.9604 8.78141 15.4181 11.6815 18.3177C14.5816 21.2173 16.0389 22.0117 17.2102 22.6506L17.5386 22.8315C18.2981 23.2574 19.2553 23.0599 19.7843 22.3681L21.5525 20.095C21.7999 19.7797 22.2479 19.7071 22.5824 19.928L28.6539 23.9774C28.9948 24.2037 29.097 24.6583 28.8858 25.0087Z" fill="#00CC00"/>
<path d="M16.9989 5.0025C21.6905 5.00771 25.4924 8.80971 25.4977 13.5013C25.4977 13.7774 25.7215 14.0012 25.9976 14.0012C26.2737 14.0012 26.4975 13.7774 26.4975 13.5013C26.4917 8.25772 22.2425 4.00843 16.9989 4.00269C16.7228 4.00269 16.499 4.22648 16.499 4.50259C16.499 4.7787 16.7228 5.0025 16.9989 5.0025Z" fill="#00CC00"/>
<path d="M16.9989 8.00225C20.0346 8.00583 22.4946 10.4658 22.4981 13.5015C22.4981 13.7776 22.722 14.0014 22.998 14.0014C23.2742 14.0014 23.4979 13.7776 23.4979 13.5015C23.4938 9.91383 20.5865 7.00654 16.9989 7.00244C16.7228 7.00244 16.499 7.22624 16.499 7.50235C16.499 7.77846 16.7228 8.00225 16.9989 8.00225Z" fill="#00CC00"/>
<path d="M16.9989 11.0018C18.3787 11.0034 19.4969 12.1216 19.4986 13.5014C19.4986 13.7775 19.7224 14.0013 19.9985 14.0013C20.2745 14.0013 20.4984 13.7775 20.4984 13.5014C20.4962 11.5696 18.9307 10.0041 16.9989 10.002C16.7228 10.002 16.499 10.2257 16.499 10.5019C16.499 10.778 16.7228 11.0018 16.9989 11.0018Z" fill="#00CC00"/>
</g>
<defs>
<clipPath id="clip0">
<rect width="30" height="30" fill="white"/>
</clipPath>
</defs>
</svg>
