<svg width="11" height="15" viewBox="0 0 11 15" fill="none" xmlns="http://www.w3.org/2000/svg">
<path d="M5.07861 5.63163V9.73231H5.92153V4.55908L5.07861 5.63163Z" fill="#EFC277"/>
<path d="M5.5 9.73231H5.92146V4.55908L5.5 5.04485V9.73231Z" fill="#E9A43A"/>
<path d="M8.8857 11.0039C8.65904 11.0039 8.43581 11.04 8.22348 11.1101C8.03306 10.6655 7.734 10.2687 7.35345 9.96286C6.83042 9.54253 6.17219 9.31104 5.5 9.31104C4.82781 9.31104 4.16958 9.54253 3.64655 9.96286C3.266 10.2687 2.96694 10.6655 2.77652 11.1101C2.56419 11.04 2.34096 11.0039 2.1143 11.0039C0.948473 11.0039 0 11.9524 0 13.1182V13.9646C0 14.1974 0.1887 14.3861 0.421456 14.3861H10.5785C10.8113 14.3861 11 14.1974 11 13.9646V13.1182C11 11.9524 10.0515 11.0039 8.8857 11.0039Z" fill="#8F5041"/>
<path d="M10.5785 14.3861C10.8113 14.3861 11 14.1974 11 13.9646V13.1182C11 11.9524 10.0515 11.0039 8.8857 11.0039C8.65904 11.0039 8.43581 11.04 8.22348 11.1101C8.03306 10.6655 7.734 10.2687 7.35345 9.96286C6.83042 9.54253 6.17219 9.31104 5.5 9.31104V14.3861H10.5785Z" fill="#773941"/>
<path d="M9.05571 2.09048C9.04388 1.87599 8.8726 1.70471 8.65811 1.69288C8.58503 1.6888 6.85489 1.6062 5.79968 2.66141C5.6874 2.77369 5.58814 2.89366 5.50014 3.01838C5.34555 2.39719 5.055 1.70316 4.51194 1.1601C3.2515 -0.100333 1.17738 -0.00123495 1.08971 0.00365393C0.875221 0.0154828 0.703941 0.186762 0.692112 0.401255C0.687279 0.488946 0.588125 2.56304 1.84859 3.82348C2.78029 4.75518 4.1378 4.94303 4.82772 4.97622H5.07863V5.63169C5.07863 5.7912 5.20793 5.9205 5.36744 5.9205C5.80954 5.9205 7.19147 5.84464 8.08715 4.94893C9.14239 3.89369 9.05973 2.16362 9.05571 2.09048Z" fill="#85C782"/>
<path d="M8.658 1.69273C8.58492 1.68865 6.85478 1.60605 5.79957 2.66126C5.68729 2.77354 5.58803 2.89351 5.50003 3.01823C5.50003 3.01818 5.5 3.01815 5.5 3.01809V5.91813C6.04126 5.90141 7.26747 5.76835 8.08706 4.94876C9.14228 3.89351 9.05964 2.16344 9.0556 2.0903C9.04377 1.87584 8.87249 1.70456 8.658 1.69273Z" fill="#569759"/>
</svg>
