<svg width="24" height="24" viewBox="0 0 24 24" fill="none" xmlns="http://www.w3.org/2000/svg">
<path d="M11.6602 4.28955C10.2024 4.28955 8.77737 4.72183 7.56528 5.53173C6.35319 6.34162 5.40847 7.49276 4.85061 8.83956C4.29274 10.1864 4.14678 11.6684 4.43118 13.0981C4.71558 14.5279 5.41756 15.8412 6.44836 16.872C7.47916 17.9028 8.79248 18.6048 10.2222 18.8892C11.652 19.1736 13.134 19.0276 14.4808 18.4698C15.8276 17.9119 16.9787 16.9672 17.7886 15.7551C18.5985 14.543 19.0308 13.118 19.0308 11.6602C19.0286 9.70604 18.2514 7.83255 16.8696 6.45076C15.4878 5.06897 13.6143 4.29172 11.6602 4.28955ZM11.6602 18.2114C10.3647 18.2114 9.09829 17.8273 8.02112 17.1076C6.94394 16.3879 6.10437 15.3649 5.60857 14.168C5.11276 12.9712 4.98299 11.6542 5.23566 10.3836C5.48833 9.11295 6.11209 7.94579 7.02808 7.02968C7.94406 6.11356 9.11113 5.48963 10.3817 5.23678C11.6523 4.98393 12.9693 5.11351 14.1662 5.60915C15.3632 6.10478 16.3862 6.94421 17.1061 8.02128C17.826 9.09835 18.2103 10.3647 18.2105 11.6602C18.2086 13.3968 17.5178 15.0618 16.2898 16.2898C15.0618 17.5178 13.3968 18.2086 11.6602 18.2105V18.2114Z" fill="#9E9898"/>
<path d="M22.2987 13.3723C22.7775 12.8923 23.3203 12.3483 23.3203 11.6602C23.3203 10.972 22.7775 10.428 22.2987 9.94922C21.9766 9.62648 21.6438 9.29297 21.5672 9.00633C21.4847 8.69789 21.6089 8.2282 21.7289 7.77375C21.907 7.09992 22.091 6.40289 21.7594 5.82984C21.4226 5.24789 20.7206 5.05852 20.0416 4.87547C19.5933 4.75453 19.1295 4.62937 18.9108 4.4107C18.6921 4.19203 18.5672 3.72844 18.4463 3.27984C18.2632 2.60016 18.0738 1.89914 17.4921 1.56234C16.9186 1.2307 16.2216 1.41469 15.5468 1.59258C15.0923 1.71258 14.6222 1.83633 14.3142 1.7543C14.0273 1.67766 13.6941 1.34484 13.3713 1.02281C12.8923 0.542813 12.3483 0 11.6602 0C10.972 0 10.4283 0.542812 9.94922 1.02164C9.62648 1.34367 9.29297 1.67648 9.00633 1.75312C8.69789 1.83516 8.22797 1.71141 7.77352 1.59141C7.09922 1.41328 6.40266 1.22906 5.82938 1.56094C5.24742 1.89773 5.05828 2.59969 4.875 3.27867C4.7543 3.72703 4.62914 4.19109 4.41047 4.40953C4.1918 4.62797 3.7282 4.75313 3.27961 4.87406C2.59992 5.05711 1.89867 5.24648 1.56211 5.82844C1.23047 6.40148 1.41445 7.09852 1.59234 7.77234C1.71234 8.2268 1.83656 8.69672 1.75406 9.00516C1.67578 9.29297 1.34367 9.62531 1.02188 9.94922C0.542813 10.4292 0 10.9732 0 11.6613C0 12.3495 0.542813 12.8934 1.02188 13.3734C1.34367 13.6962 1.67648 14.0297 1.75312 14.3163C1.83562 14.6248 1.71141 15.0945 1.59141 15.5491C1.41352 16.223 1.2293 16.9198 1.56117 17.4928C1.89773 18.0748 2.59969 18.2641 3.27867 18.4472C3.72703 18.5681 4.19086 18.6933 4.4093 18.912C4.62773 19.1306 4.75313 19.5945 4.87406 20.0428C5.05711 20.7225 5.24648 21.4235 5.82844 21.7603C6.40148 22.0922 7.09875 21.908 7.77258 21.7301C8.2268 21.6101 8.69625 21.4856 9.00516 21.5684C9.29203 21.645 9.62555 21.9778 9.94828 22.2998C10.4283 22.7787 10.972 23.3215 11.6592 23.3215C12.3464 23.3215 12.8913 22.7787 13.3713 22.2998C13.6941 21.9778 14.0276 21.645 14.3142 21.5684C14.6224 21.4859 15.0928 21.6101 15.5468 21.7301C16.2209 21.9084 16.9174 22.0924 17.4907 21.7605C18.0727 21.4237 18.262 20.7218 18.4451 20.0428C18.566 19.5945 18.6912 19.1306 18.9098 18.912C19.1285 18.6933 19.5921 18.5684 20.0407 18.4474C20.7204 18.2644 21.4214 18.075 21.7582 17.4933C22.0901 16.92 21.9061 16.223 21.728 15.548C21.6077 15.0935 21.4837 14.6238 21.5662 14.3154C21.6445 14.0273 21.9766 13.695 22.2987 13.3723ZM20.9358 15.757C21.0712 16.2703 21.2114 16.8009 21.0492 17.081C20.8821 17.3698 20.3461 17.5146 19.8281 17.6541C19.2755 17.8031 18.7043 17.9571 18.3307 18.3307C17.9571 18.7043 17.8029 19.2755 17.6541 19.8281C17.5134 20.3463 17.3698 20.8828 17.081 21.0495C16.7998 21.2116 16.2703 21.071 15.7573 20.9358C15.1995 20.7884 14.6224 20.6365 14.1033 20.7748C13.6045 20.9079 13.1918 21.3197 12.7929 21.7179C12.4073 22.1025 12.0089 22.5 11.6602 22.5C11.3114 22.5 10.913 22.1016 10.5277 21.7179C10.1292 21.3195 9.71602 20.9079 9.21703 20.7748C9.07224 20.7373 8.92316 20.7189 8.77359 20.7202C8.36262 20.7408 7.95589 20.8133 7.56305 20.9358C7.05 21.071 6.51914 21.2109 6.2393 21.0492C5.95031 20.8821 5.8057 20.3461 5.66602 19.8281C5.51719 19.2755 5.3632 18.7043 4.98961 18.3307C4.61602 17.9571 4.04461 17.8029 3.49219 17.6541C2.97398 17.5134 2.4375 17.3698 2.27109 17.081C2.10891 16.7998 2.24906 16.2703 2.38453 15.7573C2.53195 15.1995 2.68453 14.6224 2.54555 14.1033C2.41219 13.6045 2.00062 13.1918 1.60242 12.7929C1.21805 12.4073 0.820312 12.0089 0.820312 11.6602C0.820312 11.3114 1.21875 10.913 1.60242 10.5274C2.00086 10.129 2.41219 9.71578 2.54555 9.21703C2.68453 8.69789 2.53195 8.12086 2.38453 7.56281C2.24906 7.04977 2.10914 6.51937 2.27109 6.2393C2.4382 5.95055 2.97422 5.8057 3.49219 5.66625C4.04484 5.51719 4.61719 5.3632 4.98961 4.98961C5.36203 4.61602 5.51742 4.04484 5.66625 3.49219C5.80687 2.97398 5.95055 2.4375 6.2393 2.27086C6.51891 2.10867 7.04977 2.24906 7.56305 2.38453C8.12109 2.53219 8.69836 2.6843 9.21703 2.54555C9.71602 2.41242 10.1285 2.00062 10.5277 1.60242C10.913 1.21781 11.3114 0.820312 11.6602 0.820312C12.0089 0.820312 12.4073 1.21875 12.7929 1.60242C13.1913 2.00086 13.6045 2.41242 14.1033 2.54555C14.6224 2.6843 15.1995 2.53219 15.757 2.38453C16.2703 2.2493 16.8007 2.10891 17.081 2.27109C17.3698 2.4382 17.5146 2.97422 17.6541 3.49219C17.8031 4.04484 17.9571 4.61719 18.3307 4.98961C18.7043 5.36203 19.2755 5.51742 19.8281 5.66625C20.3463 5.80687 20.8828 5.95055 21.0495 6.2393C21.2114 6.52055 21.0712 7.05 20.9358 7.56305C20.7884 8.12086 20.636 8.69789 20.7748 9.21703C20.9079 9.71578 21.3197 10.1285 21.7179 10.5274C22.1025 10.913 22.5 11.3114 22.5 11.6602C22.5 12.0089 22.1016 12.4073 21.7179 12.7929C21.3195 13.1913 20.9079 13.6045 20.7748 14.1033C20.6367 14.6222 20.7884 15.1992 20.9358 15.757Z" fill="#9E9898"/>
<path d="M14.8644 8.34839C14.6873 8.34791 14.512 8.38256 14.3484 8.45036C14.1849 8.51815 14.0364 8.61772 13.9116 8.74332L10.9362 11.7182L9.40883 10.1908C9.28404 10.0641 9.13541 9.96339 8.97151 9.8944C8.80761 9.82542 8.63168 9.78956 8.45386 9.78888C8.27603 9.78821 8.09983 9.82273 7.93541 9.89046C7.77099 9.95819 7.6216 10.0578 7.49585 10.1835C7.3701 10.3093 7.27048 10.4586 7.20273 10.6231C7.13497 10.7875 7.10043 10.9637 7.10108 11.1415C7.10174 11.3193 7.13758 11.4952 7.20654 11.6592C7.2755 11.8231 7.37622 11.9717 7.5029 12.0965L9.98328 14.5769C10.1084 14.7021 10.257 14.8014 10.4205 14.8692C10.584 14.937 10.7592 14.9718 10.9362 14.9718C11.1133 14.9718 11.2885 14.937 11.452 14.8692C11.6155 14.8014 11.7641 14.7021 11.8892 14.5769L15.8173 10.6492C16.0058 10.4607 16.1341 10.2206 16.1861 9.95917C16.2381 9.69774 16.2114 9.42676 16.1094 9.1805C16.0074 8.93424 15.8347 8.72375 15.6131 8.57564C15.3915 8.42753 15.1309 8.34845 14.8644 8.34839ZM15.2375 10.0689L11.3087 13.9971C11.2082 14.0929 11.0746 14.1463 10.9358 14.1463C10.7969 14.1463 10.6634 14.0929 10.5629 13.9971L8.08297 11.5167C8.034 11.4677 7.99516 11.4096 7.96866 11.3456C7.94216 11.2816 7.92852 11.213 7.92852 11.1438C7.92852 11.0745 7.94216 11.006 7.96866 10.942C7.99516 10.878 8.034 10.8199 8.08297 10.7709C8.13194 10.7219 8.19008 10.6831 8.25406 10.6566C8.31804 10.6301 8.38661 10.6164 8.45586 10.6164C8.52512 10.6164 8.59369 10.6301 8.65767 10.6566C8.72165 10.6831 8.77978 10.7219 8.82875 10.7709L10.6463 12.5882C10.6844 12.6263 10.7296 12.6566 10.7793 12.6772C10.8291 12.6978 10.8824 12.7085 10.9362 12.7085C10.9901 12.7085 11.0434 12.6978 11.0932 12.6772C11.1429 12.6566 11.1881 12.6263 11.2262 12.5882L14.4919 9.32292C14.5923 9.22687 14.7258 9.17326 14.8647 9.17326C15.0036 9.17326 15.1372 9.22687 15.2375 9.32292C15.2865 9.37187 15.3253 9.42999 15.3518 9.49395C15.3783 9.55791 15.3919 9.62646 15.3919 9.6957C15.3919 9.76493 15.3783 9.83348 15.3518 9.89744C15.3253 9.96141 15.2865 10.0195 15.2375 10.0685V10.0689Z" fill="#9E9898"/>
</svg>
