<svg width="40" height="38" viewBox="0 0 40 38" fill="none" xmlns="http://www.w3.org/2000/svg">
<path d="M18.5723 0.58462L0.590462 18.5724C-0.196838 19.3617 -0.196838 20.6405 0.590462 21.4318C1.37776 22.2211 2.65654 22.2211 3.44384 21.4318L19.9989 4.87075L36.5539 21.4298C37.3412 22.2191 38.62 22.2191 39.4093 21.4298C40.1966 20.6405 40.1966 19.3597 39.4093 18.5704L21.4276 0.582626C20.6485 -0.194541 19.3496 -0.194541 18.5723 0.58462Z" fill="#00CC00"/>
<path d="M18.5723 15.5846L0.590462 33.5724C-0.196838 34.3617 -0.196838 35.6405 0.590462 36.4318C1.37776 37.2211 2.65654 37.2211 3.44384 36.4318L19.9989 19.8707L36.5539 36.4298C37.3412 37.2191 38.62 37.2191 39.4093 36.4298C40.1966 35.6405 40.1966 34.3597 39.4093 33.5704L21.4276 15.5826C20.6485 14.8055 19.3496 14.8055 18.5723 15.5846Z" fill="#00CC00"/>
</svg>
