<svg width="13" height="16" viewBox="0 0 13 16" fill="none" xmlns="http://www.w3.org/2000/svg">
<path d="M11.75 2H9V1.5C9 0.672906 8.32709 0 7.5 0H5.5C4.67291 0 4 0.672906 4 1.5V2H1.25C0.56075 2 0 2.56075 0 3.25V5C0 5.27613 0.223875 5.5 0.5 5.5H0.77325L1.20522 14.5713C1.24338 15.3725 1.9015 16 2.7035 16H10.2965C11.0985 16 11.7567 15.3725 11.7948 14.5713L12.2268 5.5H12.5C12.7761 5.5 13 5.27613 13 5V3.25C13 2.56075 12.4392 2 11.75 2ZM5 1.5C5 1.22431 5.22431 1 5.5 1H7.5C7.77569 1 8 1.22431 8 1.5V2H5V1.5ZM1 3.25C1 3.11216 1.11216 3 1.25 3H11.75C11.8878 3 12 3.11216 12 3.25V4.5C11.8459 4.5 1.63853 4.5 1 4.5V3.25ZM10.7959 14.5238C10.7832 14.7908 10.5638 15 10.2965 15H2.7035C2.43616 15 2.21678 14.7908 2.20409 14.5238L1.77437 5.5H11.2256L10.7959 14.5238Z" fill="#FF0909" fill-opacity="0.8"/>
<path d="M6.5 14C6.77613 14 7 13.7761 7 13.5V7C7 6.72387 6.77613 6.5 6.5 6.5C6.22387 6.5 6 6.72387 6 7V13.5C6 13.7761 6.22384 14 6.5 14Z" fill="#FF0909" fill-opacity="0.8"/>
<path d="M9 14C9.27613 14 9.5 13.7761 9.5 13.5V7C9.5 6.72387 9.27613 6.5 9 6.5C8.72387 6.5 8.5 6.72387 8.5 7V13.5C8.5 13.7761 8.72384 14 9 14Z" fill="#FF0909" fill-opacity="0.8"/>
<path d="M4 14C4.27613 14 4.5 13.7761 4.5 13.5V7C4.5 6.72387 4.27613 6.5 4 6.5C3.72387 6.5 3.5 6.72387 3.5 7V13.5C3.5 13.7761 3.72384 14 4 14Z" fill="#FF0909" fill-opacity="0.8"/>
</svg>
