<svg width="30" height="30" viewBox="0 0 30 30" fill="none" xmlns="http://www.w3.org/2000/svg">
<g clip-path="url(#clip0)">
<path d="M29.9994 5.14476C29.9994 5.14148 29.999 5.1382 29.9989 5.13486C29.9985 5.12179 29.9978 5.1089 29.9963 5.09613C29.9957 5.09144 29.9948 5.08675 29.9941 5.08206C29.9923 5.07029 29.9902 5.05868 29.9875 5.04732C29.9864 5.04281 29.9852 5.03835 29.984 5.03384C29.9806 5.02148 29.9767 5.00935 29.9723 4.9974C29.9715 4.99511 29.9709 4.99277 29.9701 4.99054L28.778 1.93887C28.6578 1.63137 28.3668 1.43262 28.0366 1.43262H25.8661C25.6294 1.43262 25.4377 1.62439 25.4377 1.861C25.4377 2.0976 25.6294 2.28937 25.8661 2.28937H27.9951L28.9438 4.71802H19.9746L19.4127 2.28937H22.7251C22.9617 2.28937 23.1535 2.0976 23.1535 1.861C23.1535 1.62439 22.9617 1.43262 22.7251 1.43262H18.8738H14.5574H5.3946C5.06437 1.43262 4.77339 1.63137 4.65322 1.93898L3.46113 4.99054C3.46025 4.99283 3.45978 4.99517 3.4589 4.9974C3.45445 5.00929 3.45058 5.02142 3.44719 5.03384C3.44596 5.03835 3.44478 5.04281 3.44373 5.04732C3.44103 5.05874 3.43887 5.07035 3.43711 5.08206C3.4364 5.08675 3.43553 5.09144 3.43494 5.09613C3.43348 5.1089 3.43265 5.12179 3.4323 5.13486C3.43224 5.13814 3.43183 5.14142 3.43178 5.14476C3.43178 5.14529 3.43172 5.14581 3.43172 5.14634V11.4399C3.43172 11.6765 3.62349 11.8683 3.8601 11.8683C4.0967 11.8683 4.28847 11.6765 4.28847 11.4399V5.57478H13.3688V12.0862C13.3688 12.3408 13.5188 12.5729 13.7511 12.6773C13.8361 12.7156 13.9266 12.7343 14.0165 12.7343C14.1722 12.7343 14.3261 12.6784 14.4468 12.5714L16.7156 10.5614L18.9844 12.5713C19.1749 12.7403 19.4481 12.7818 19.6803 12.6773C19.9124 12.5728 20.0624 12.3408 20.0624 12.0862V5.57478H29.1427V24.789C29.1427 25.0964 28.8926 25.3465 28.5852 25.3465H20.7306C20.7306 25.3416 20.73 25.3368 20.7299 25.3319C20.7294 25.2935 20.728 25.2551 20.7248 25.217C21.4623 25.4125 22.2503 25.0335 22.5458 24.3087C22.7013 23.9274 22.699 23.5085 22.5393 23.129C22.5243 23.0933 22.5077 23.0586 22.4902 23.0244C22.487 23.0182 22.4839 23.0118 22.4807 23.0056C22.4635 22.973 22.4452 22.9412 22.426 22.9102C22.4222 22.9042 22.4183 22.8983 22.4145 22.8924C22.3941 22.8605 22.373 22.8293 22.3504 22.7993C22.35 22.7987 22.3496 22.7981 22.3491 22.7976C22.3268 22.7679 22.3031 22.7393 22.2787 22.7114C22.2742 22.7063 22.2698 22.7011 22.2653 22.696C22.2411 22.6691 22.216 22.643 22.1899 22.6179C22.1848 22.6129 22.1797 22.6082 22.1745 22.6034C22.1473 22.5778 22.1194 22.5529 22.0903 22.5294C22.0893 22.5286 22.0883 22.5279 22.0873 22.5271C22.0588 22.5041 22.029 22.4823 21.9988 22.4613C21.9933 22.4575 21.9879 22.4536 21.9823 22.4499C21.9521 22.4295 21.921 22.4102 21.8891 22.3919C21.8865 22.3903 21.8841 22.3886 21.8814 22.3871C22.0624 22.2304 22.2054 22.0321 22.2984 21.8039C22.4538 21.4227 22.4516 21.0037 22.2919 20.6242C22.1522 20.2922 21.9066 20.0251 21.5921 19.8594C21.5472 19.8357 21.5008 19.8141 21.4532 19.7947L14.786 17.0761L17.8895 16.1155C18.6278 15.887 19.0436 15.0995 18.8164 14.3602C18.7316 14.0842 18.5635 13.8515 18.3464 13.6814C18.0232 13.4282 17.5913 13.3139 17.163 13.4038C17.161 13.4043 17.159 13.4046 17.1569 13.4052C17.1332 13.4105 14.7541 13.9455 12.2693 14.43C12.1591 14.4515 12.0517 14.4722 11.9458 14.4926C11.8611 14.5089 11.7775 14.525 11.6955 14.5405C11.672 14.5451 11.6484 14.5495 11.625 14.554C11.4803 14.5814 11.34 14.6078 11.2038 14.6331C11.1489 14.6433 11.0945 14.6533 11.041 14.6632C7.92052 15.238 7.0439 15.2484 6.80062 15.2154C6.79968 15.2153 6.79886 15.2152 6.79792 15.215C6.79423 15.2145 6.7906 15.214 6.7872 15.2134C6.78474 15.213 6.78245 15.2126 6.78017 15.2123C6.77853 15.212 6.77677 15.2117 6.77519 15.2114C6.76001 15.2087 6.74818 15.2058 6.73904 15.2031L6.66884 15.1745L6.75632 14.96C6.84234 14.749 6.84105 14.5172 6.75275 14.3073C6.73066 14.2548 6.70376 14.2052 6.67259 14.159C6.57907 14.0206 6.44683 13.9128 6.28863 13.8483L3.98777 12.9101C3.77689 12.824 3.54504 12.8254 3.3351 12.9137C3.1251 13.002 2.96215 13.1668 2.87613 13.3777L0.0626416 20.2779C-0.114897 20.7133 0.0949267 21.2119 0.530336 21.3895L2.83125 22.3277C2.93631 22.3705 3.045 22.3908 3.15205 22.3908C3.48855 22.3908 3.80812 22.1903 3.94283 21.86L3.96398 21.8081L4.49449 22.0244C4.49478 22.0245 4.49508 22.0247 4.49543 22.0248C5.00285 22.2317 5.47037 22.5269 5.87501 22.8932C5.94861 22.9599 6.02009 23.0288 6.08941 23.1C6.15872 23.1712 6.22576 23.2447 6.2905 23.3203C6.32284 23.3581 6.35466 23.3964 6.38577 23.4353C6.9754 24.1705 7.74837 24.7473 8.621 25.1031L9.21784 25.3464H4.84605C4.53867 25.3464 4.28853 25.0963 4.28853 24.7889V23.705C4.28853 23.4684 4.09676 23.2766 3.86015 23.2766C3.62355 23.2766 3.43178 23.4684 3.43178 23.705V24.7889C3.43178 25.5687 4.06617 26.2032 4.84605 26.2032H11.3191L16.8375 28.4533C17.0274 28.5308 17.224 28.5675 17.4175 28.5675C18.0256 28.5675 18.6033 28.205 18.8467 27.608C18.9466 27.3632 18.9786 27.1072 18.9517 26.8612C19.2388 26.9024 19.5364 26.8646 19.8061 26.7481C20.0803 26.6297 20.3075 26.4411 20.4689 26.2031H28.5853C29.3651 26.2031 29.9995 25.5687 29.9995 24.7889V5.1464C29.9995 5.14581 29.9994 5.14534 29.9994 5.14476ZM14.898 2.28937H18.5332L19.0952 4.71802H14.336L14.898 2.28937ZM13.4566 4.71802H4.4874L5.43609 2.28937H14.0186L13.4566 4.71802ZM19.2058 11.6228H19.2057L17.1454 9.79756C17.0229 9.68905 16.8693 9.63479 16.7157 9.63479C16.5621 9.63479 16.4084 9.68905 16.2859 9.79756L14.2257 11.6228V5.57478H19.2058V11.6228ZM3.151 21.5328L0.857464 20.5977L3.66797 13.705L5.9615 14.6402L3.151 21.5328ZM20.2653 24.118L19.7737 23.9175C19.7734 23.9174 19.7732 23.9173 19.773 23.9172C19.7728 23.9172 19.7726 23.917 19.7724 23.917C19.7724 23.917 19.7723 23.9169 19.7723 23.9169L14.652 21.8292C14.433 21.7399 14.1829 21.845 14.0936 22.0641C14.0042 22.2832 14.1094 22.5332 14.3286 22.6226L19.4489 24.7104C19.4703 24.7191 19.491 24.7288 19.511 24.7394C19.5166 24.7424 19.5218 24.746 19.5273 24.7491C19.5414 24.7571 19.5555 24.7651 19.5688 24.7739C19.5752 24.7782 19.5811 24.7831 19.5873 24.7876C19.5991 24.796 19.6111 24.8043 19.6222 24.8135C19.6289 24.819 19.635 24.8251 19.6415 24.8309C19.6515 24.8397 19.6617 24.8483 19.6711 24.8577C19.6776 24.8641 19.6834 24.8712 19.6896 24.8779C19.6982 24.8871 19.707 24.8962 19.7151 24.9059C19.7213 24.9134 19.7267 24.9213 19.7325 24.929C19.7399 24.9386 19.7475 24.948 19.7542 24.958C19.7599 24.9663 19.7648 24.9751 19.77 24.9836C19.7761 24.9934 19.7826 25.0031 19.7881 25.0132C19.7932 25.0224 19.7974 25.0319 19.802 25.0412C19.8069 25.0512 19.8123 25.0611 19.8167 25.0713C19.821 25.0812 19.8245 25.0914 19.8283 25.1014C19.8321 25.1115 19.8364 25.1215 19.8398 25.1318C19.8432 25.1422 19.8457 25.1528 19.8486 25.1633C19.8515 25.1736 19.8547 25.1838 19.8571 25.1943C19.8595 25.2049 19.861 25.2157 19.863 25.2264C19.8649 25.237 19.8671 25.2476 19.8685 25.2584C19.8699 25.2692 19.8705 25.2801 19.8713 25.2909C19.8722 25.3018 19.8735 25.3126 19.8739 25.3235C19.8742 25.3343 19.8737 25.3451 19.8736 25.3559C19.8734 25.367 19.8736 25.3781 19.8729 25.3893C19.8723 25.3999 19.8707 25.4105 19.8695 25.4211C19.8683 25.4326 19.8674 25.444 19.8655 25.4554C19.8638 25.4658 19.8611 25.4762 19.859 25.4866C19.8565 25.4981 19.8545 25.5097 19.8514 25.5212C19.8487 25.5313 19.845 25.5414 19.8418 25.5515C19.8382 25.5629 19.8348 25.5744 19.8306 25.5857C19.8269 25.5935 19.8233 25.6014 19.82 25.6093C19.8192 25.6111 19.8188 25.613 19.8181 25.6147C19.7512 25.7693 19.6277 25.892 19.4664 25.9617C19.2889 26.0383 19.0856 26.041 18.9086 25.9688L18.0014 25.5989C17.9972 25.5972 17.9929 25.596 17.9887 25.5944C17.9844 25.5925 17.9804 25.5903 17.9761 25.5885L13.8115 23.8904C13.5923 23.8011 13.3424 23.9062 13.2531 24.1253C13.1637 24.3444 13.2689 24.5944 13.488 24.6838L17.6526 26.3819C17.657 26.3837 17.6615 26.385 17.666 26.3867C17.6701 26.3884 17.6738 26.3906 17.678 26.3922C18.0275 26.5348 18.196 26.9351 18.0535 27.2846C17.9109 27.6342 17.5108 27.8027 17.1611 27.6601L11.5657 25.3785C11.5655 25.3784 11.5652 25.3783 11.565 25.3782L8.94468 24.3097C8.48343 24.1217 8.05511 23.8606 7.677 23.5395C7.45013 23.3468 7.24136 23.1325 7.05433 22.8993C6.87005 22.6695 6.6679 22.4553 6.4504 22.2583C5.97187 21.8251 5.41904 21.4761 4.8191 21.2314C4.81904 21.2314 4.81898 21.2313 4.81892 21.2313L4.28771 21.0148L5.34574 18.42L6.34558 15.9679L6.41935 15.9979C6.48878 16.0262 6.58781 16.0664 6.85429 16.0765C7.18722 16.0916 7.738 16.0568 8.72472 15.9174C9.39591 15.8226 10.2192 15.6855 11.1803 15.5087C11.204 15.5044 11.2275 15.5 11.2514 15.4956C11.2963 15.4873 11.3417 15.4789 11.3873 15.4704C11.4228 15.4639 11.4584 15.4572 11.4943 15.4504C11.5352 15.4428 11.5763 15.4351 11.6177 15.4273C11.6615 15.419 11.706 15.4107 11.7506 15.4022C11.7864 15.3954 11.822 15.3886 11.8581 15.3818C11.9126 15.3714 11.9679 15.3608 12.0235 15.3501C12.0521 15.3446 12.0804 15.3392 12.1092 15.3337C12.1943 15.3173 12.2805 15.3007 12.3682 15.2836C14.8445 14.802 17.2345 14.2659 17.3419 14.2418C17.3526 14.2395 17.3634 14.2383 17.3741 14.2367C17.6492 14.196 17.9188 14.3551 17.9977 14.6119C18.0255 14.7021 18.0287 14.7941 18.0112 14.8807C17.9728 15.0713 17.8343 15.2358 17.6363 15.297L13.3894 16.6115C13.2164 16.6651 13.0959 16.8214 13.0881 17.0022C13.0802 17.1829 13.1867 17.3492 13.3543 17.4175L21.1299 20.5881C21.2993 20.6571 21.4316 20.7879 21.5025 20.9565C21.5734 21.1251 21.5744 21.3112 21.5053 21.4804C21.4363 21.6498 21.3055 21.7821 21.1369 21.853C21.0526 21.8884 20.964 21.9063 20.8752 21.9068C20.8739 21.9068 20.8726 21.9066 20.8714 21.9066C20.8505 21.9066 20.8297 21.9058 20.8089 21.9039C20.8027 21.9033 20.7966 21.902 20.7905 21.9013C20.7746 21.8994 20.7587 21.8976 20.743 21.8945C20.733 21.8926 20.7232 21.8897 20.7133 21.8873C20.7014 21.8845 20.6895 21.8821 20.6778 21.8786C20.6657 21.8751 20.6538 21.8703 20.6418 21.866C20.6323 21.8626 20.6227 21.8598 20.6133 21.856L15.4925 19.768C15.2734 19.6786 15.0234 19.7838 14.9341 20.0029C14.8447 20.222 14.9499 20.472 15.169 20.5614L21.3773 23.0928C21.4197 23.11 21.4597 23.1312 21.497 23.1558C21.609 23.2296 21.6967 23.3348 21.7498 23.4613C21.8119 23.6087 21.8205 23.7696 21.7753 23.921C21.7689 23.9426 21.7613 23.964 21.7527 23.9852C21.7438 24.007 21.7339 24.0282 21.7231 24.0486C21.6978 24.0961 21.6671 24.1389 21.6327 24.178C21.6114 24.2023 21.5886 24.2249 21.5643 24.2456C21.5605 24.2489 21.557 24.2527 21.553 24.2558C21.3967 24.3837 21.1877 24.4387 20.9835 24.3974C20.9421 24.389 20.9009 24.3771 20.8603 24.3606L20.2653 24.118Z" fill="#9E9898"/>
</g>
<defs>
<clipPath id="clip0">
<rect width="30" height="30" fill="white"/>
</clipPath>
</defs>
</svg>
