<svg width="58" height="36" viewBox="0 0 58 36" fill="none" xmlns="http://www.w3.org/2000/svg">
<path d="M52.3622 11.5198H47.1005V16.7446H41.8628V21.9934H47.1005V27.2182H52.3622V21.9934H57.5999V16.7446H52.3622V11.5198Z" fill="white"/>
<path d="M18.0444 36C28.4572 36 35.3742 28.7088 35.3742 18.4176C35.3742 17.2392 35.2515 16.3296 35.0806 15.4224H18.0468V21.6096H28.2887C27.8701 24.2376 25.1875 29.3688 18.0468 29.3688C11.8948 29.3688 6.87129 24.2856 6.87129 18C6.87129 11.7144 11.8924 6.6288 18.0468 6.6288C21.5666 6.6288 23.9052 8.1264 25.2356 9.4032L30.1341 4.7136C26.9799 1.7688 22.9187 0 18.0444 0C8.07425 0 0 8.0544 0 18C0 27.9456 8.07425 36 18.0444 36Z" fill="white"/>
</svg>
