<svg width="40" height="40" viewBox="0 0 40 40" fill="none" xmlns="http://www.w3.org/2000/svg">
<path d="M39.9901 40V39.9983H40.0001V25.3283C40.0001 18.1516 38.4551 12.6233 30.0651 12.6233C26.0318 12.6233 23.3251 14.8366 22.2201 16.935H22.1034V13.2933H14.1484V39.9983H22.4318V26.775C22.4318 23.2933 23.0918 19.9266 27.4034 19.9266C31.6518 19.9266 31.7151 23.9 31.7151 26.9983V40H39.9901Z" fill="white"/>
<path d="M0.659912 13.2949H8.95325V39.9999H0.659912V13.2949Z" fill="white"/>
<path d="M4.80333 0C2.15167 0 0 2.15167 0 4.80333C0 7.455 2.15167 9.65167 4.80333 9.65167C7.455 9.65167 9.60667 7.455 9.60667 4.80333C9.605 2.15167 7.45333 0 4.80333 0V0Z" fill="white"/>
</svg>
